<svg xmlns="http://www.w3.org/2000/svg" xmlns:xlink="http://www.w3.org/1999/xlink" version="1.1" width="375pt" height="375pt" viewBox="0 0 375 375">
<defs>
<clipPath id="clip_0">
<path transform="matrix(.24,0,0,.24,0,0)" d="M0 0H1562.5V1593.75H0Z" fill-rule="evenodd"/>
</clipPath>
<clipPath id="clip_1">
<path transform="matrix(.24,0,0,.24,0,0)" d="M0 0H1562.5V1562.5H0Z" fill-rule="evenodd"/>
</clipPath>
<clipPath id="clip_2">
<path transform="matrix(.24,0,0,.24,0,0)" d="M0 0H1562.5V1562.5H0Z" fill-rule="evenodd"/>
</clipPath>
<clipPath id="clip_3">
<path transform="matrix(.24,0,0,.24,0,0)" d="M0 0H1562.5V1562.5H0Z" fill-rule="evenodd"/>
</clipPath>
<path id="font_4_18" d="M.4019928 .69999697C.50399276 .69999697 .5846608 .67449447 .6439972 .6234894 .70333358 .5724945 .7330017 .4996643 .7330017 .40499879H.5220032C.5220032 .44499717 .51150009 .47666423 .49049378 .5 .46949769 .52333578 .43966676 .53500369 .40100099 .53500369 .3563334 .53500369 .3234965 .52100118 .30249024 .49299623 .28149415 .46500144 .2709961 .42600505 .2709961 .37600709V.31199647C.2709961 .2626699 .28149415 .22383626 .30249024 .1954956 .3234965 .16716512 .3556671 .15299988 .39900209 .15299988 .44166566 .15299988 .47399903 .16399639 .4960022 .18598938 .5180054 .20799256 .52900698 .23899842 .52900698 .27900697H.7330017C.7330017 .18500264 .70416769 .1130015 .64649966 .06300354 .5888316 .013005574 .5073293-.011993408 .4019928-.011993408 .28466288-.011993408 .1958313 .018005372 .13549805 .07800293 .075164798 .13800049 .04499817 .22666423 .04499817 .34399415 .04499817 .46133424 .075164798 .55000308 .13549805 .6100006 .1958313 .66999819 .28466288 .69999697 .4019928 .69999697Z"/>
<path id="font_4_75" d="M.41600038 .69999697C.5346629 .69999697 .6263275 .6696625 .69099429 .60899356 .755661 .5483348 .7879944 .46000163 .7879944 .34399415 .7879944 .22799683 .755661 .1396637 .69099429 .07899475 .6263275 .018335978 .5346629-.011993408 .41600038-.011993408 .29733787-.011993408 .20583599 .018173218 .14149475 .07850647 .0771637 .13883972 .04499817 .22733562 .04499817 .34399415 .04499817 .46066285 .0771637 .5491638 .14149475 .6094971 .20583599 .6698303 .29733787 .69999697 .41600038 .69999697M.41600038 .53500369C.3686676 .53500369 .33266703 .5206706 .30799867 .4920044 .2833303 .46333824 .2709961 .42467246 .2709961 .37600709V.31199647C.2709961 .2633311 .2833303 .22466533 .30799867 .19599915 .33266703 .16733296 .3686676 .15299988 .41600038 .15299988 .46333314 .15299988 .49949647 .16733296 .52449038 .19599915 .54949447 .22466533 .56199648 .2633311 .56199648 .31199647V.37600709C.56199648 .42467246 .54949447 .46333824 .52449038 .4920044 .49949647 .5206706 .46333314 .53500369 .41600038 .53500369Z"/>
<path id="font_4_24" d="M.37199403 .68800356C.61266586 .68800356 .7330017 .57333377 .7330017 .34399415 .7330017 .11466471 .61266586 0 .37199403 0H.07400513V.68800356H.37199403M.29499818 .16499329H.36799623C.46066795 .16499329 .5070038 .21466065 .5070038 .31399537V.37399293C.5070038 .47332765 .46066795 .522995 .36799623 .522995H.29499818V.16499329Z"/>
<path id="font_4_28" d="M.07400513 .68800356H.66900637V.522995H.29499818V.42799378H.6150055V.27000428H.29499818V.16499329H.6759949V0H.07400513V.68800356Z"/>
<path id="font_4_68" d="M.6649933 0V.2480011C.6649933 .27867127 .666158 .3101705 .66848757 .34249879 .6708272 .37483726 .67332968 .40200297 .6759949 .42399598 .6786601 .44599916 .68032839 .46000163 .68099978 .46600343H.67700198L.55000308 0H.3769989L.24899292 .46499635H.24499512C.2456665 .45899455 .24750264 .4451599 .25050355 .42349244 .25350444 .4018351 .2563375 .37483726 .2590027 .34249879 .26166789 .3101705 .2630005 .27867127 .2630005 .2480011V0H.05999756V.68800356H.37199403L.47599793 .29100038H.47999574L.58299258 .68800356H.8840027V0H.6649933Z"/>
<path id="font_4_4" d="M.53500369 0 .5059967 .09700012H.2649994L.23599243 0H.009994507L.2610016 .68800356H.5180054L.7689972 0H.53500369M.31100465 .25100709H.4600067L.3880005 .4960022H.3840027L.31100465 .25100709Z"/>
<path id="font_4_100" d="M.47000123 .5119934V0H.24899292V.5119934H.022994996V.68800356H.6950073V.5119934H.47000123Z"/>
<path id="font_5_120" d="M.3486328 0H.26513673V.28027345L.018554688 .7138672H.11035156L.30273438 .37939454H.3149414L.5058594 .7138672H.5957031L.3486328 .28027345V0Z"/>
<path id="font_5_203" d="M.30908204-.010253906C.25830079-.010253906 .21411133 .00048828127 .17651367 .021972657 .13891602 .04345703 .109944667 .07511393 .08959961 .11694336 .069254558 .15877278 .05908203 .20947266 .05908203 .26904298 .05908203 .32861329 .069254558 .37939454 .08959961 .42138673 .109944667 .4633789 .13891602 .4951172 .17651367 .51660159 .21411133 .53808596 .25830079 .5488281 .30908204 .5488281 .35986329 .5488281 .40405274 .53808596 .4416504 .51660159 .47924806 .4951172 .5082194 .4633789 .52856448 .42138673 .5489095 .37939454 .55908206 .32861329 .55908206 .26904298 .55908206 .20947266 .5489095 .15877278 .52856448 .11694336 .5082194 .07511393 .47924806 .04345703 .4416504 .021972657 .40405274 .00048828127 .35986329-.010253906 .30908204-.010253906M.30908204 .061035158C.36279298 .061035158 .40388999 .07796224 .43237306 .111816409 .4608561 .14567058 .47509767 .19807942 .47509767 .26904298 .47509767 .34033204 .4608561 .39290367 .43237306 .4267578 .40388999 .46061198 .36279298 .47753907 .30908204 .47753907 .2553711 .47753907 .2141927 .4605306 .18554688 .42651368 .15690105 .39249674 .14257813 .3400065 .14257813 .26904298 .14257813 .19807942 .15690105 .14567058 .18554688 .111816409 .2141927 .07796224 .2553711 .061035158 .30908204 .061035158Z"/>
<path id="font_5_233" d="M.26611329-.010253906C.20524089-.010253906 .15991211 .005859375 .13012696 .038085939 .1003418 .0703125 .08544922 .11751302 .08544922 .1796875V.5385742H.16503906V.18164063C.16503906 .0999349 .20345052 .05908203 .28027345 .05908203 .32910157 .05908203 .36767579 .075032558 .3959961 .106933597 .4243164 .13883464 .43847657 .19059246 .43847657 .26220704V.5385742H.5180664V0H.4428711V.084472659L.4326172 .08691406C.4140625 .054036458 .3918457 .029622397 .3659668 .013671875 .3400879-.0022786458 .30680339-.010253906 .26611329-.010253906Z"/>
<path id="font_5_217" d="M.09375 0V.5385742H.1694336V.45410157L.1796875 .45166017C.20475261 .5128581 .25195313 .54345706 .32128907 .54345706 .3580729 .54345706 .38557945 .5367839 .4038086 .5234375L.38330079 .4560547 .37353517 .45410157C.35335288 .46419273 .33121745 .46923829 .3071289 .46923829 .26416017 .46923829 .2311198 .453125 .20800781 .42089845 .18489583 .38867188 .17333985 .33642579 .17333985 .26416017V0H.09375Z"/>
<path id="font_5_1" d="M0 0Z"/>
<path id="font_5_149" d="M.27929688-.010253906C.23600261-.010253906 .19783528 .00008138021 .16479492 .020751954 .13175456 .041422529 .10587565 .07259115 .0871582 .11425781 .06844076 .15592449 .05908203 .20751953 .05908203 .26904298 .05908203 .3305664 .068847659 .38224284 .088378909 .42407228 .107910159 .4659017 .134847 .4971517 .16918946 .51782229 .2035319 .53849288 .24332683 .5488281 .28857423 .5488281 .3243815 .5488281 .35660807 .54207357 .3852539 .52856448 .41389976 .51505538 .43847657 .49283854 .45898438 .46191407L.46923829 .4638672V.7548828H.5488281V0H.46923829V.07861328L.45898438 .080566409C.44140626 .0538737 .41756187 .0320638 .38745118 .015136719 .35734049-.0017903646 .32128907-.010253906 .27929688-.010253906M.30419923 .061035158C.35432945 .061035158 .3943685 .07820638 .4243164 .11254883 .4542643 .14689128 .46923829 .19905599 .46923829 .26904298 .46923829 .33935548 .4542643 .39168296 .4243164 .4260254 .3943685 .46036784 .35432945 .47753907 .30419923 .47753907 .2524414 .47753907 .21256511 .46077476 .18457031 .4272461 .15657552 .39371745 .14257813 .34098307 .14257813 .26904298 .14257813 .1303711 .19645183 .061035158 .30419923 .061035158Z"/>
<path id="font_5_153" d="M.5131836 .25097657H.1430664C.14534505 .18554688 .16105144 .13753255 .19018555 .106933597 .21931966 .07633463 .25927735 .061035158 .3100586 .061035158 .34847007 .061035158 .37939454 .067871097 .40283204 .08154297 .42626954 .095214847 .44466148 .11669922 .4580078 .1459961H.46826173L.52001956 .115234378C.50439456 .076171878 .4794108 .045491537 .44506837 .02319336 .41072593 .0008951823 .36572267-.010253906 .3100586-.010253906 .25797526-.010253906 .21321614 0 .17578125 .020507813 .13834636 .041015626 .10953776 .07210287 .08935547 .11376953 .06917318 .1554362 .05908203 .20719402 .05908203 .26904298 .05908203 .33024089 .069742839 .38183595 .09106445 .42382813 .11238607 .4658203 .14152019 .4971517 .1784668 .51782229 .2154134 .53849288 .25764976 .5488281 .30517579 .5488281 .3741862 .5488281 .4280599 .52937826 .46679688 .49047853 .5055339 .45157878 .5250651 .39388023 .5253906 .3173828 .5253906 .2874349 .52473959 .2672526 .5234375 .25683595L.5131836 .25097657M.44677735 .3173828C.44547526 .37467448 .43277995 .41634117 .4086914 .4423828 .38460288 .46842448 .35009767 .4814453 .30517579 .4814453 .25797526 .4814453 .22094727 .4683431 .1940918 .44213868 .16723633 .41593424 .1508789 .37434898 .14501953 .3173828H.44677735Z"/>
<path id="font_5_214" d="M.09375-.21826172V.5385742H.17333985V.4580078L.18359375 .4560547C.22363281 .5179036 .2823893 .5488281 .35986329 .5488281 .40478517 .5488281 .4440104 .5385742 .47753907 .5180664 .5110677 .4975586 .5371094 .46638999 .55566409 .42456056 .57421877 .3827311 .5834961 .33089195 .5834961 .26904298 .5834961 .20751953 .57373049 .15592449 .5541992 .11425781 .53466799 .07259115 .5076497 .041422529 .47314454 .020751954 .4386393 .00008138021 .39892579-.010253906 .3540039-.010253906 .31754557-.010253906 .28515626-.00390625 .25683595 .0087890629 .22851563 .021484375 .20410156 .042317708 .18359375 .07128906L.17333985 .06933594V-.21826172H.09375M.33642579 .061035158C.44547526 .061035158 .5 .1303711 .5 .26904298 .5 .40804038 .44547526 .47753907 .33642579 .47753907 .30452476 .47753907 .2763672 .47021485 .25195313 .4555664 .22753906 .44091798 .20833333 .41805015 .19433594 .3869629 .18033855 .35587565 .17333985 .316569 .17333985 .26904298 .17333985 .22184246 .18033855 .18269857 .19433594 .15161133 .20833333 .120524089 .22753906 .09765625 .25195313 .08300781 .2763672 .068359378 .30452476 .061035158 .33642579 .061035158Z"/>
<path id="font_5_197" d="M.09375 0V.5385742H.1694336V.45410157L.1796875 .45166017C.19759114 .4832357 .22045899 .5073242 .24829102 .5239258 .27612306 .54052737 .3100586 .5488281 .35009767 .5488281 .4148763 .5488281 .46183268 .5323079 .4909668 .49926759 .5201009 .4662272 .53466799 .4153646 .53466799 .3466797V0H.45507813V.34472657C.45507813 .37727867 .45092774 .4034017 .44262696 .4230957 .43432618 .4427897 .4214681 .45711265 .40405274 .46606446 .38663737 .47501628 .36376954 .4794922 .33544923 .4794922 .28694663 .4794922 .24780274 .4634603 .21801758 .43139649 .18823242 .39933268 .17333985 .34765626 .17333985 .2763672V0H.09375Z"/>
<path id="font_5_130" d="M.22216797-.010253906C.16910808-.010253906 .12768555 .0035807293 .09790039 .03125 .068115238 .05891927 .053222658 .098470058 .053222658 .14990235 .053222658 .18180339 .059814454 .20874024 .07299805 .23071289 .08618164 .25268556 .10660807 .2705892 .13427735 .28442384 .16194661 .29825846 .19807942 .30891929 .24267578 .31640626 .28173829 .32291667 .31144206 .33024089 .3317871 .3383789 .35213218 .34651695 .36580406 .3556315 .37280274 .36572267 .37980143 .3758138 .38330079 .38850913 .38330079 .4038086 .38330079 .42822267 .3749186 .4469401 .3581543 .45996095 .34138999 .47298179 .31445313 .4794922 .27734376 .4794922 .24251302 .4794922 .21264649 .47273765 .18774414 .45922853 .1628418 .4457194 .13997396 .4256185 .119140628 .39892579H.109375L.0703125 .45410157C.09309896 .4830729 .12207031 .5061035 .15722656 .52319338 .19238281 .5402832 .23242188 .5488281 .27734376 .5488281 .3408203 .5488281 .38761393 .5349121 .4177246 .5070801 .4478353 .47924806 .46289063 .44075523 .46289063 .39160157V.10595703C.46289063 .07600912 .47558595 .061035158 .50097659 .061035158 .5094401 .061035158 .5175781 .0625 .5253906 .06542969L.53222659 .06347656 .5415039 .008300781C.53564456 .0043945314 .5279134 .0013834635 .51831057-.0007324219 .5087077-.0028483074 .4988607-.00390625 .48876954-.00390625 .45914714-.00390625 .43676759 .0026041668 .42163087 .015625 .40649415 .028645834 .3968099 .047851564 .39257813 .07324219L.38232423 .07421875C.36702476 .045898439 .34635417 .024739584 .3203125 .0107421879 .29427085-.0032552083 .261556-.010253906 .22216797-.010253906M.2397461 .053222658C.269694 .053222658 .2956543 .060139974 .31762696 .07397461 .3395996 .08780924 .3564453 .10725912 .36816407 .13232422 .3798828 .15738933 .3857422 .18636067 .3857422 .21923828V.28759767L.37646485 .28955079C.36442057 .28108726 .34977214 .27400718 .33251954 .26831056 .31526695 .26261393 .29117839 .25748698 .2602539 .2529297 .2290039 .24869792 .20418294 .2421875 .18579102 .23339844 .1673991 .22460938 .15429688 .21346028 .14648438 .19995117 .13867188 .18644206 .13476563 .16975911 .13476563 .14990235 .13476563 .11832682 .14404297 .094319667 .16259766 .07788086 .18115235 .06144206 .20686849 .053222658 .2397461 .053222658Z"/>
<path id="font_5_142" d="M.35791017-.010253906C.3178711-.010253906 .28312174-.0025227864 .2536621 .012939453 .22420247 .028401694 .20084636 .048828126 .18359375 .07421875L.17333985 .072265628V0H.09375V.7548828H.17333985V.4580078L.18359375 .4560547C.22460938 .5179036 .2841797 .5488281 .3623047 .5488281 .40657554 .5488281 .4453125 .5385742 .47851563 .5180664 .51171877 .4975586 .5375163 .46638999 .5559082 .42456056 .5743001 .3827311 .5834961 .33089195 .5834961 .26904298 .5834961 .20784505 .5738118 .15633138 .55444338 .11450195 .5350749 .07267252 .50846359 .041422529 .47460938 .020751954 .44075523 .00008138021 .40185548-.010253906 .35791017-.010253906M.3388672 .061035158C.44628907 .061035158 .5 .1303711 .5 .26904298 .5 .34098307 .4860026 .39371745 .4580078 .4272461 .43001304 .46077476 .39029948 .47753907 .3388672 .47753907 .28841148 .47753907 .24820964 .46036784 .21826172 .4260254 .1883138 .39168296 .17333985 .33935548 .17333985 .26904298 .17333985 .19905599 .1883138 .14689128 .21826172 .11254883 .24820964 .07820638 .28841148 .061035158 .3388672 .061035158Z"/>
<path id="font_5_190" d="M.21435547-.010253906C.17626953-.010253906 .14632161 .00056966146 .12451172 .022216797 .10270182 .043863935 .091796878 .076171878 .091796878 .119140628V.7548828H.17138672V.12451172C.17138672 .10205078 .17569988 .08585612 .18432617 .075927738 .19295247 .06599935 .2063802 .061035158 .22460938 .061035158 .23567708 .061035158 .24690755 .06282552 .25830079 .06640625L.26513673 .064453128 .27441407 .001953125C.2685547-.001953125 .26017253-.004964193 .24926758-.007080078 .23836263-.009195964 .22672527-.010253906 .21435547-.010253906Z"/>
<path id="font_5_228" d="M.3642578 .08544922 .38964845 .028320313C.37695313 .015625 .36027018 .0060221354 .3395996-.00048828127 .31892906-.0069986979 .29654948-.010253906 .27246095-.010253906 .16959636-.010253906 .11816406 .041829427 .11816406 .1459961V.4736328H.024414063V.5390625H.11816406V.65283206L.1977539 .6660156V.5390625H.37109376V.4736328H.1977539V.1538086C.1977539 .09195963 .22460938 .061035158 .2783203 .061035158 .3076172 .061035158 .33284507 .06917318 .3540039 .08544922H.3642578Z"/>
<path id="font_5_143" d="M.30908204-.010253906C.261556-.010253906 .21891277 .00056966146 .18115235 .022216797 .14339192 .043863935 .11360677 .07576498 .091796878 .11791992 .06998698 .16007488 .05908203 .21044922 .05908203 .26904298 .05908203 .32796226 .06998698 .37849937 .091796878 .4206543 .11360677 .46280924 .14339192 .4947103 .18115235 .5163574 .21891277 .5380046 .261556 .5488281 .30908204 .5488281 .3660482 .5488281 .41137696 .53808596 .44506837 .51660159 .47875978 .4951172 .50309249 .46647135 .5180664 .43066407L.4638672 .39160157H.45410157C.43945313 .42122398 .4206543 .44295249 .39770509 .4567871 .37475587 .47062174 .34521485 .47753907 .30908204 .47753907 .2758789 .47753907 .2467448 .46972657 .22167969 .45410157 .19661458 .43847657 .17716472 .41503907 .16333008 .38378907 .14949544 .35253907 .14257813 .31429038 .14257813 .26904298 .14257813 .2241211 .14957683 .18611653 .16357422 .1550293 .17757161 .123942058 .19702149 .100504558 .22192383 .0847168 .24682617 .06892904 .2758789 .061035158 .30908204 .061035158 .34651695 .061035158 .3775228 .069498699 .4020996 .08642578 .42667643 .10335287 .44596354 .13004558 .45996095 .1665039H.47021485L.52246096 .13574219C.50846359 .09049479 .48347984 .05485026 .44750978 .028808594 .4115397 .002766927 .36539714-.010253906 .30908204-.010253906Z"/>
<path id="font_5_169" d="M.09375 0V.7548828H.17333985V.46191407L.18359375 .45996095C.2220052 .51920577 .2775065 .5488281 .35009767 .5488281 .4148763 .5488281 .46183268 .5323079 .4909668 .49926759 .5201009 .4662272 .53466799 .4153646 .53466799 .3466797V0H.45507813V.34472657C.45507813 .37727867 .45092774 .4034017 .44262696 .4230957 .43432618 .4427897 .4214681 .45711265 .40405274 .46606446 .38663737 .47501628 .36376954 .4794922 .33544923 .4794922 .2866211 .4794922 .24739583 .46370445 .21777344 .4321289 .18815105 .40055339 .17333985 .3486328 .17333985 .2763672V0H.09375Z"/>
<path id="font_5_164" d="M.27734376-.22851563C.19238281-.22851563 .1303711-.21435547 .091308597-.18603516 .052246095-.15771485 .032714845-.12011719 .032714845-.07324219 .032714845-.04296875 .041829427-.018880209 .060058595-.0009765625 .07828776 .016927084 .10481771 .029785157 .13964844 .037597658V.047851564C.123046878 .057291669 .1105957 .068359378 .10229492 .08105469 .09399414 .09375 .08984375 .10888672 .08984375 .12646485 .08984375 .14729817 .09643555 .16422527 .10961914 .1772461 .122802738 .19026692 .14241536 .20019531 .16845703 .20703125V.21728516C.10986328 .24820964 .080566409 .2985026 .080566409 .36816407 .080566409 .4033203 .088541667 .4345703 .10449219 .46191407 .12044271 .4892578 .14322917 .5105794 .17285156 .5258789 .20247396 .5411784 .23697917 .5488281 .2763672 .5488281 .3216146 .5488281 .359375 .5388997 .38964845 .51904299 .40104167 .5317383 .40958659 .5453288 .4152832 .55981448 .42097984 .5743001 .42464195 .59065756 .42626954 .6088867L.43652345 .6152344 .5019531 .5996094C.4986979 .5722656 .49047853 .5491536 .47729493 .53027346 .46411134 .51139327 .44547526 .49576823 .42138673 .48339845V.47314454C.4386393 .45947267 .45141603 .44344078 .4597168 .42504884 .46801759 .4066569 .47216798 .3852539 .47216798 .36083985 .47216798 .3269857 .46402995 .29654948 .4477539 .26953126 .43147788 .24251302 .40852867 .22127278 .37890626 .20581055 .34928385 .19034831 .31510417 .18261719 .2763672 .18261719 .2718099 .18261719 .26367188 .1829427 .25195313 .18359375 .2389323 .1842448 .22932942 .18457031 .22314453 .18457031 .20621746 .18457031 .19270833 .18017578 .18261719 .17138672 .17252605 .16259766 .16748047 .15136719 .16748047 .13769531 .16748047 .12076823 .17293294 .108317058 .18383789 .1003418 .19474285 .09236654 .21272786 .087890628 .23779297 .08691406L.36523438 .08251953C.4202474 .080566409 .4610189 .06778971 .48754884 .044189454 .5140788 .020589194 .52734377-.012858073 .52734377-.056152345 .52734377-.088378909 .51871749-.11743164 .50146487-.14331055 .48421226-.16918946 .4568685-.18986003 .4194336-.20532227 .3819987-.2207845 .3346354-.22851563 .27734376-.22851563M.2763672 .25097657C.31445313 .25097657 .34391276 .26090495 .3647461 .28076173 .38557945 .3006185 .3959961 .32845054 .3959961 .3642578 .3959961 .4013672 .3856608 .43001304 .36499024 .4501953 .34431968 .4703776 .31477867 .48046876 .2763672 .48046876 .23795574 .48046876 .20865886 .47045899 .18847656 .45043946 .16829427 .43041993 .15820313 .40169273 .15820313 .3642578 .15820313 .328125 .16829427 .30021159 .18847656 .28051759 .20865886 .26082359 .23795574 .25097657 .2763672 .25097657M.27734376-.16015625C.31705729-.16015625 .34952799-.15576172 .37475587-.14697266 .39998374-.1381836 .4181315-.12654622 .42919923-.11206055 .44026695-.09757487 .44580079-.08138021 .44580079-.06347656 .44580079-.047526044 .4427897-.03466797 .43676759-.024902344 .43074546-.015136719 .4210612-.0078125 .40771485-.0029296876 .3943685 .001953125 .3761393 .0050455729 .35302735 .0063476564L.23242188 .012207031H.21533203C.14794922 .011230469 .11425781-.014973958 .11425781-.06640625 .11425781-.12890625 .1686198-.16015625 .27734376-.16015625Z"/>
<path id="font_5_251" d="M.107910159-.22851563C.08968099-.22851563 .07267252-.2269694 .056884767-.22387696 .041097005-.2207845 .02750651-.21647136 .016113282-.2109375L.030761719-.14794922 .03955078-.14501953C.04736328-.14892578 .057128908-.15226238 .068847659-.1550293 .080566409-.15779622 .09261068-.15917969 .10498047-.15917969 .12679036-.15917969 .14485677-.15625 .15917969-.15039063 .17350261-.14453125 .18579102-.134847 .19604492-.12133789 .20629883-.10782877 .21582031-.08919271 .22460938-.06542969L.24365235-.0126953129 .02734375 .5385742H.11328125L.28271485 .099121097H.2919922L.4560547 .5385742H.53759768L.296875-.084472659C.28320313-.11897787 .26790367-.14672852 .25097657-.16772461 .23404949-.1887207 .21402996-.20410156 .19091797-.21386719 .16780599-.22363281 .14013672-.22851563 .107910159-.22851563Z"/>
</defs>
<g clip-path="url(#clip_0)">
<path transform="matrix(.75,0,0,.75,0,0)" d="M0 0H500V510H0Z" fill="#ffffff"/>
</g>
<g clip-path="url(#clip_1)">
<path transform="matrix(.75,0,0,.75,0,0)" d="M0 0H500V500H0Z" fill="#ffffff"/>
</g>
<g clip-path="url(#clip_2)">
<path transform="matrix(.75,0,0,.75,0,0)" d="M0 0H500V500H0Z" fill="#ffffff"/>
</g>
<g clip-path="url(#clip_3)">
<use data-text="C" xlink:href="#font_4_18" transform="matrix(39.9975,0,0,-39.9975,125.28516,174.00843)"/>
<use data-text="O" xlink:href="#font_4_75" transform="matrix(39.9975,0,0,-39.9975,156.40207,174.00843)"/>
<use data-text="D" xlink:href="#font_4_24" transform="matrix(39.9975,0,0,-39.9975,189.71875,174.00843)"/>
<use data-text="E" xlink:href="#font_4_28" transform="matrix(39.9975,0,0,-39.9975,220.83567,174.00843)"/>
<use data-text="M" xlink:href="#font_4_68" transform="matrix(39.9975,0,0,-39.9975,124.18359,213.75843)" fill="#ff5757"/>
<use data-text="A" xlink:href="#font_4_4" transform="matrix(39.9975,0,0,-39.9975,161.93985,213.75843)" fill="#ff5757"/>
<use data-text="T" xlink:href="#font_4_100" transform="matrix(39.9975,0,0,-39.9975,193.05677,213.75843)" fill="#ff5757"/>
<use data-text="E" xlink:href="#font_4_28" transform="matrix(39.9975,0,0,-39.9975,221.93389,213.75843)" fill="#ff5757"/>
<use data-text="Y" xlink:href="#font_5_120" transform="matrix(7.0001528,0,0,-7.0001528,125.107089,235.60819)"/>
<use data-text="o" xlink:href="#font_5_203" transform="matrix(7.0001528,0,0,-7.0001528,129.40518,235.60819)"/>
<use data-text="u" xlink:href="#font_5_233" transform="matrix(7.0001528,0,0,-7.0001528,133.73128,235.60819)"/>
<use data-text="r" xlink:href="#font_5_217" transform="matrix(7.0001528,0,0,-7.0001528,138.01537,235.60819)"/>
<use data-text=" " xlink:href="#font_5_1" transform="matrix(7.0001528,0,0,-7.0001528,140.92743,235.60819)"/>
<use data-text="d" xlink:href="#font_5_149" transform="matrix(7.0001528,0,0,-7.0001528,142.64247,235.60819)"/>
<use data-text="e" xlink:href="#font_5_153" transform="matrix(7.0001528,0,0,-7.0001528,147.14357,235.60819)"/>
<use data-text="p" xlink:href="#font_5_214" transform="matrix(7.0001528,0,0,-7.0001528,151.16165,235.60819)"/>
<use data-text="e" xlink:href="#font_5_153" transform="matrix(7.0001528,0,0,-7.0001528,155.66275,235.60819)"/>
<use data-text="n" xlink:href="#font_5_197" transform="matrix(7.0001528,0,0,-7.0001528,159.68085,235.60819)"/>
<use data-text="d" xlink:href="#font_5_149" transform="matrix(7.0001528,0,0,-7.0001528,164.02094,235.60819)"/>
<use data-text="a" xlink:href="#font_5_130" transform="matrix(7.0001528,0,0,-7.0001528,168.52204,235.60819)"/>
<use data-text="b" xlink:href="#font_5_142" transform="matrix(7.0001528,0,0,-7.0001528,172.42113,235.60819)"/>
<use data-text="l" xlink:href="#font_5_190" transform="matrix(7.0001528,0,0,-7.0001528,176.92224,235.60819)"/>
<use data-text="e" xlink:href="#font_5_153" transform="matrix(7.0001528,0,0,-7.0001528,178.97328,235.60819)"/>
<use data-text=" " xlink:href="#font_5_1" transform="matrix(7.0001528,0,0,-7.0001528,182.99137,235.60819)"/>
<use data-text="t" xlink:href="#font_5_228" transform="matrix(7.0001528,0,0,-7.0001528,184.7064,235.60819)"/>
<use data-text="e" xlink:href="#font_5_153" transform="matrix(7.0001528,0,0,-7.0001528,187.57648,235.60819)"/>
<use data-text="c" xlink:href="#font_5_143" transform="matrix(7.0001528,0,0,-7.0001528,191.59456,235.60819)"/>
<use data-text="h" xlink:href="#font_5_169" transform="matrix(7.0001528,0,0,-7.0001528,195.47965,235.60819)"/>
<use data-text="n" xlink:href="#font_5_197" transform="matrix(7.0001528,0,0,-7.0001528,199.81974,235.60819)"/>
<use data-text="o" xlink:href="#font_5_203" transform="matrix(7.0001528,0,0,-7.0001528,204.15984,235.60819)"/>
<use data-text="l" xlink:href="#font_5_190" transform="matrix(7.0001528,0,0,-7.0001528,208.48593,235.60819)"/>
<use data-text="o" xlink:href="#font_5_203" transform="matrix(7.0001528,0,0,-7.0001528,210.53699,235.60819)"/>
<use data-text="g" xlink:href="#font_5_164" transform="matrix(7.0001528,0,0,-7.0001528,214.86307,235.60819)"/>
<use data-text="y" xlink:href="#font_5_251" transform="matrix(7.0001528,0,0,-7.0001528,218.72714,235.60819)"/>
<use data-text=" " xlink:href="#font_5_1" transform="matrix(7.0001528,0,0,-7.0001528,222.70325,235.60819)"/>
<use data-text="p" xlink:href="#font_5_214" transform="matrix(7.0001528,0,0,-7.0001528,224.41828,235.60819)"/>
<use data-text="a" xlink:href="#font_5_130" transform="matrix(7.0001528,0,0,-7.0001528,228.91938,235.60819)"/>
<use data-text="r" xlink:href="#font_5_217" transform="matrix(7.0001528,0,0,-7.0001528,232.81845,235.60819)"/>
<use data-text="t" xlink:href="#font_5_228" transform="matrix(7.0001528,0,0,-7.0001528,235.73053,235.60819)"/>
<use data-text="n" xlink:href="#font_5_197" transform="matrix(7.0001528,0,0,-7.0001528,238.60059,235.60819)"/>
<use data-text="e" xlink:href="#font_5_153" transform="matrix(7.0001528,0,0,-7.0001528,242.94068,235.60819)"/>
<use data-text="r" xlink:href="#font_5_217" transform="matrix(7.0001528,0,0,-7.0001528,246.95877,235.60819)"/>
</g>
</svg>
