<svg xmlns="http://www.w3.org/2000/svg" version="1.1" xmlns:xlink="http://www.w3.org/1999/xlink" xmlns:svgjs="http://svgjs.com/svgjs" width="400" height="900" preserveAspectRatio="none" viewBox="0 0 400 900"><g mask="url(&quot;#SvgjsMask1076&quot;)" fill="none"><rect width="400" height="900" x="0" y="0" fill="rgba(223, 88, 88, 1)"></rect><path d="M-54.9 641.06L-54.9 641.06" stroke="rgba(92, 38, 38, 1)" stroke-width="1.5"></path><path d="M-54.9 641.06L-65.83 712.62" stroke="rgba(92, 38, 38, 1)" stroke-width="1.5"></path><path d="M-54.9 641.06L59.21 628.51" stroke="rgba(92, 38, 38, 1)" stroke-width="1.5"></path><path d="M-54.9 641.06L-59.88 840.89" stroke="rgba(92, 38, 38, 1)" stroke-width="1.5"></path><path d="M-54.9 641.06L181.81 613.05" stroke="rgba(92, 38, 38, 1)" stroke-width="1.5"></path><path d="M-54.9 641.06L154.76 520.92" stroke="rgba(92, 38, 38, 1)" stroke-width="1.5"></path><path d="M-54.9 641.06L56.84 860.91" stroke="rgba(92, 38, 38, 1)" stroke-width="1.5"></path><path d="M-65.83 712.62L-65.83 712.62" stroke="rgba(92, 38, 38, 1)" stroke-width="1.5"></path><path d="M-65.83 712.62L-59.88 840.89" stroke="rgba(92, 38, 38, 1)" stroke-width="1.5"></path><path d="M-65.83 712.62L59.21 628.51" stroke="rgba(92, 38, 38, 1)" stroke-width="1.5"></path><path d="M-59.88 840.89L-59.88 840.89" stroke="rgba(92, 38, 38, 1)" stroke-width="1.5"></path><path d="M-59.88 840.89L56.84 860.91" stroke="rgba(92, 38, 38, 1)" stroke-width="1.5"></path><path d="M-59.88 840.89L-83.94 961.14" stroke="rgba(92, 38, 38, 1)" stroke-width="1.5"></path><path d="M-59.88 840.89L35.25 945.83" stroke="rgba(92, 38, 38, 1)" stroke-width="1.5"></path><path d="M-59.88 840.89L157.35 826.94" stroke="rgba(92, 38, 38, 1)" stroke-width="1.5"></path><path d="M-83.94 961.14L-83.94 961.14" stroke="rgba(92, 38, 38, 1)" stroke-width="1.5"></path><path d="M-83.94 961.14L35.25 945.83" stroke="rgba(92, 38, 38, 1)" stroke-width="1.5"></path><path d="M-83.94 961.14L56.84 860.91" stroke="rgba(92, 38, 38, 1)" stroke-width="1.5"></path><path d="M-83.94 961.14L158.61 937.71" stroke="rgba(92, 38, 38, 1)" stroke-width="1.5"></path><path d="M59.21 628.51L59.21 628.51" stroke="rgba(92, 38, 38, 1)" stroke-width="1.5"></path><path d="M59.21 628.51L181.81 613.05" stroke="rgba(92, 38, 38, 1)" stroke-width="1.5"></path><path d="M59.21 628.51L154.76 520.92" stroke="rgba(92, 38, 38, 1)" stroke-width="1.5"></path><path d="M56.84 860.91L56.84 860.91" stroke="rgba(92, 38, 38, 1)" stroke-width="1.5"></path><path d="M56.84 860.91L35.25 945.83" stroke="rgba(92, 38, 38, 1)" stroke-width="1.5"></path><path d="M56.84 860.91L157.35 826.94" stroke="rgba(92, 38, 38, 1)" stroke-width="1.5"></path><path d="M56.84 860.91L158.61 937.71" stroke="rgba(92, 38, 38, 1)" stroke-width="1.5"></path><path d="M35.25 945.83L35.25 945.83" stroke="rgba(92, 38, 38, 1)" stroke-width="1.5"></path><path d="M35.25 945.83L158.61 937.71" stroke="rgba(92, 38, 38, 1)" stroke-width="1.5"></path><path d="M35.25 945.83L157.35 826.94" stroke="rgba(92, 38, 38, 1)" stroke-width="1.5"></path><path d="M35.25 945.83L-65.83 712.62" stroke="rgba(92, 38, 38, 1)" stroke-width="1.5"></path><path d="M159.76 408.35L159.76 408.35" stroke="rgba(92, 38, 38, 1)" stroke-width="1.5"></path><path d="M159.76 408.35L154.76 520.92" stroke="rgba(92, 38, 38, 1)" stroke-width="1.5"></path><path d="M159.76 408.35L279.12 372.7" stroke="rgba(92, 38, 38, 1)" stroke-width="1.5"></path><path d="M159.76 408.35L300.53 478.7" stroke="rgba(92, 38, 38, 1)" stroke-width="1.5"></path><path d="M159.76 408.35L295.31 297.67" stroke="rgba(92, 38, 38, 1)" stroke-width="1.5"></path><path d="M159.76 408.35L181.81 613.05" stroke="rgba(92, 38, 38, 1)" stroke-width="1.5"></path><path d="M159.76 408.35L396.2 388.01" stroke="rgba(92, 38, 38, 1)" stroke-width="1.5"></path><path d="M154.76 520.92L154.76 520.92" stroke="rgba(92, 38, 38, 1)" stroke-width="1.5"></path><path d="M154.76 520.92L181.81 613.05" stroke="rgba(92, 38, 38, 1)" stroke-width="1.5"></path><path d="M181.81 613.05L181.81 613.05" stroke="rgba(92, 38, 38, 1)" stroke-width="1.5"></path><path d="M192.74 720.98L192.74 720.98" stroke="rgba(92, 38, 38, 1)" stroke-width="1.5"></path><path d="M192.74 720.98L288.37 756.83" stroke="rgba(92, 38, 38, 1)" stroke-width="1.5"></path><path d="M192.74 720.98L181.81 613.05" stroke="rgba(92, 38, 38, 1)" stroke-width="1.5"></path><path d="M192.74 720.98L157.35 826.94" stroke="rgba(92, 38, 38, 1)" stroke-width="1.5"></path><path d="M157.35 826.94L157.35 826.94" stroke="rgba(92, 38, 38, 1)" stroke-width="1.5"></path><path d="M157.35 826.94L158.61 937.71" stroke="rgba(92, 38, 38, 1)" stroke-width="1.5"></path><path d="M158.61 937.71L158.61 937.71" stroke="rgba(92, 38, 38, 1)" stroke-width="1.5"></path><path d="M290.31 -48.73L290.31 -48.73" stroke="rgba(92, 38, 38, 1)" stroke-width="1.5"></path><path d="M290.31 -48.73L269.84 39.95" stroke="rgba(92, 38, 38, 1)" stroke-width="1.5"></path><path d="M290.31 -48.73L414.82 -78.2" stroke="rgba(92, 38, 38, 1)" stroke-width="1.5"></path><path d="M269.84 39.95L269.84 39.95" stroke="rgba(92, 38, 38, 1)" stroke-width="1.5"></path><path d="M269.84 39.95L391.47 80.2" stroke="rgba(92, 38, 38, 1)" stroke-width="1.5"></path><path d="M269.84 39.95L414.82 -78.2" stroke="rgba(92, 38, 38, 1)" stroke-width="1.5"></path><path d="M269.84 39.95L514.27 56.46" stroke="rgba(92, 38, 38, 1)" stroke-width="1.5"></path><path d="M269.84 39.95L482.06 185.81" stroke="rgba(92, 38, 38, 1)" stroke-width="1.5"></path><path d="M295.31 297.67L295.31 297.67" stroke="rgba(92, 38, 38, 1)" stroke-width="1.5"></path><path d="M295.31 297.67L279.12 372.7" stroke="rgba(92, 38, 38, 1)" stroke-width="1.5"></path><path d="M295.31 297.67L388.14 277.87" stroke="rgba(92, 38, 38, 1)" stroke-width="1.5"></path><path d="M295.31 297.67L396.2 388.01" stroke="rgba(92, 38, 38, 1)" stroke-width="1.5"></path><path d="M279.12 372.7L279.12 372.7" stroke="rgba(92, 38, 38, 1)" stroke-width="1.5"></path><path d="M279.12 372.7L300.53 478.7" stroke="rgba(92, 38, 38, 1)" stroke-width="1.5"></path><path d="M279.12 372.7L396.2 388.01" stroke="rgba(92, 38, 38, 1)" stroke-width="1.5"></path><path d="M279.12 372.7L388.14 277.87" stroke="rgba(92, 38, 38, 1)" stroke-width="1.5"></path><path d="M300.53 478.7L300.53 478.7" stroke="rgba(92, 38, 38, 1)" stroke-width="1.5"></path><path d="M300.53 478.7L394.66 499.87" stroke="rgba(92, 38, 38, 1)" stroke-width="1.5"></path><path d="M308.14 621.04L308.14 621.04" stroke="rgba(92, 38, 38, 1)" stroke-width="1.5"></path><path d="M308.14 621.04L397.74 623.48" stroke="rgba(92, 38, 38, 1)" stroke-width="1.5"></path><path d="M308.14 621.04L181.81 613.05" stroke="rgba(92, 38, 38, 1)" stroke-width="1.5"></path><path d="M288.37 756.83L288.37 756.83" stroke="rgba(92, 38, 38, 1)" stroke-width="1.5"></path><path d="M288.37 756.83L384.94 757.77" stroke="rgba(92, 38, 38, 1)" stroke-width="1.5"></path><path d="M288.37 756.83L283.24 867.9" stroke="rgba(92, 38, 38, 1)" stroke-width="1.5"></path><path d="M288.37 756.83L308.14 621.04" stroke="rgba(92, 38, 38, 1)" stroke-width="1.5"></path><path d="M283.24 867.9L283.24 867.9" stroke="rgba(92, 38, 38, 1)" stroke-width="1.5"></path><path d="M283.24 867.9L295.42 952.5" stroke="rgba(92, 38, 38, 1)" stroke-width="1.5"></path><path d="M295.42 952.5L295.42 952.5" stroke="rgba(92, 38, 38, 1)" stroke-width="1.5"></path><path d="M295.42 952.5L400.22 867.39" stroke="rgba(92, 38, 38, 1)" stroke-width="1.5"></path><path d="M295.42 952.5L158.61 937.71" stroke="rgba(92, 38, 38, 1)" stroke-width="1.5"></path><path d="M295.42 952.5L157.35 826.94" stroke="rgba(92, 38, 38, 1)" stroke-width="1.5"></path><path d="M295.42 952.5L288.37 756.83" stroke="rgba(92, 38, 38, 1)" stroke-width="1.5"></path><path d="M414.82 -78.2L414.82 -78.2" stroke="rgba(92, 38, 38, 1)" stroke-width="1.5"></path><path d="M414.82 -78.2L529.98 -71.96" stroke="rgba(92, 38, 38, 1)" stroke-width="1.5"></path><path d="M414.82 -78.2L391.47 80.2" stroke="rgba(92, 38, 38, 1)" stroke-width="1.5"></path><path d="M414.82 -78.2L514.27 56.46" stroke="rgba(92, 38, 38, 1)" stroke-width="1.5"></path><path d="M414.82 -78.2L482.06 185.81" stroke="rgba(92, 38, 38, 1)" stroke-width="1.5"></path><path d="M391.47 80.2L391.47 80.2" stroke="rgba(92, 38, 38, 1)" stroke-width="1.5"></path><path d="M391.47 80.2L514.27 56.46" stroke="rgba(92, 38, 38, 1)" stroke-width="1.5"></path><path d="M391.47 80.2L482.06 185.81" stroke="rgba(92, 38, 38, 1)" stroke-width="1.5"></path><path d="M391.47 80.2L290.31 -48.73" stroke="rgba(92, 38, 38, 1)" stroke-width="1.5"></path><path d="M388.14 277.87L388.14 277.87" stroke="rgba(92, 38, 38, 1)" stroke-width="1.5"></path><path d="M388.14 277.87L396.2 388.01" stroke="rgba(92, 38, 38, 1)" stroke-width="1.5"></path><path d="M388.14 277.87L498.04 303.49" stroke="rgba(92, 38, 38, 1)" stroke-width="1.5"></path><path d="M396.2 388.01L396.2 388.01" stroke="rgba(92, 38, 38, 1)" stroke-width="1.5"></path><path d="M396.2 388.01L394.66 499.87" stroke="rgba(92, 38, 38, 1)" stroke-width="1.5"></path><path d="M396.2 388.01L525.02 394.48" stroke="rgba(92, 38, 38, 1)" stroke-width="1.5"></path><path d="M396.2 388.01L300.53 478.7" stroke="rgba(92, 38, 38, 1)" stroke-width="1.5"></path><path d="M396.2 388.01L498.04 303.49" stroke="rgba(92, 38, 38, 1)" stroke-width="1.5"></path><path d="M394.66 499.87L394.66 499.87" stroke="rgba(92, 38, 38, 1)" stroke-width="1.5"></path><path d="M394.66 499.87L495.96 493.56" stroke="rgba(92, 38, 38, 1)" stroke-width="1.5"></path><path d="M394.66 499.87L397.74 623.48" stroke="rgba(92, 38, 38, 1)" stroke-width="1.5"></path><path d="M394.66 499.87L308.14 621.04" stroke="rgba(92, 38, 38, 1)" stroke-width="1.5"></path><path d="M394.66 499.87L525.02 394.48" stroke="rgba(92, 38, 38, 1)" stroke-width="1.5"></path><path d="M397.74 623.48L397.74 623.48" stroke="rgba(92, 38, 38, 1)" stroke-width="1.5"></path><path d="M397.74 623.48L384.94 757.77" stroke="rgba(92, 38, 38, 1)" stroke-width="1.5"></path><path d="M384.94 757.77L384.94 757.77" stroke="rgba(92, 38, 38, 1)" stroke-width="1.5"></path><path d="M384.94 757.77L485.06 755.79" stroke="rgba(92, 38, 38, 1)" stroke-width="1.5"></path><path d="M400.22 867.39L400.22 867.39" stroke="rgba(92, 38, 38, 1)" stroke-width="1.5"></path><path d="M400.22 867.39L492.98 831.47" stroke="rgba(92, 38, 38, 1)" stroke-width="1.5"></path><path d="M400.22 867.39L384.94 757.77" stroke="rgba(92, 38, 38, 1)" stroke-width="1.5"></path><path d="M529.98 -71.96L529.98 -71.96" stroke="rgba(92, 38, 38, 1)" stroke-width="1.5"></path><path d="M529.98 -71.96L514.27 56.46" stroke="rgba(92, 38, 38, 1)" stroke-width="1.5"></path><path d="M514.27 56.46L514.27 56.46" stroke="rgba(92, 38, 38, 1)" stroke-width="1.5"></path><path d="M514.27 56.46L482.06 185.81" stroke="rgba(92, 38, 38, 1)" stroke-width="1.5"></path><path d="M482.06 185.81L482.06 185.81" stroke="rgba(92, 38, 38, 1)" stroke-width="1.5"></path><path d="M482.06 185.81L498.04 303.49" stroke="rgba(92, 38, 38, 1)" stroke-width="1.5"></path><path d="M482.06 185.81L388.14 277.87" stroke="rgba(92, 38, 38, 1)" stroke-width="1.5"></path><path d="M498.04 303.49L498.04 303.49" stroke="rgba(92, 38, 38, 1)" stroke-width="1.5"></path><path d="M498.04 303.49L525.02 394.48" stroke="rgba(92, 38, 38, 1)" stroke-width="1.5"></path><path d="M525.02 394.48L525.02 394.48" stroke="rgba(92, 38, 38, 1)" stroke-width="1.5"></path><path d="M525.02 394.48L495.96 493.56" stroke="rgba(92, 38, 38, 1)" stroke-width="1.5"></path><path d="M525.02 394.48L388.14 277.87" stroke="rgba(92, 38, 38, 1)" stroke-width="1.5"></path><path d="M525.02 394.48L533.95 605.82" stroke="rgba(92, 38, 38, 1)" stroke-width="1.5"></path><path d="M495.96 493.56L495.96 493.56" stroke="rgba(92, 38, 38, 1)" stroke-width="1.5"></path><path d="M495.96 493.56L533.95 605.82" stroke="rgba(92, 38, 38, 1)" stroke-width="1.5"></path><path d="M533.95 605.82L533.95 605.82" stroke="rgba(92, 38, 38, 1)" stroke-width="1.5"></path><path d="M533.95 605.82L397.74 623.48" stroke="rgba(92, 38, 38, 1)" stroke-width="1.5"></path><path d="M533.95 605.82L485.06 755.79" stroke="rgba(92, 38, 38, 1)" stroke-width="1.5"></path><path d="M533.95 605.82L394.66 499.87" stroke="rgba(92, 38, 38, 1)" stroke-width="1.5"></path><path d="M485.06 755.79L485.06 755.79" stroke="rgba(92, 38, 38, 1)" stroke-width="1.5"></path><path d="M485.06 755.79L492.98 831.47" stroke="rgba(92, 38, 38, 1)" stroke-width="1.5"></path><path d="M492.98 831.47L492.98 831.47" stroke="rgba(92, 38, 38, 1)" stroke-width="1.5"></path><path d="M492.98 831.47L532.47 943.49" stroke="rgba(92, 38, 38, 1)" stroke-width="1.5"></path><path d="M492.98 831.47L384.94 757.77" stroke="rgba(92, 38, 38, 1)" stroke-width="1.5"></path><path d="M492.98 831.47L283.24 867.9" stroke="rgba(92, 38, 38, 1)" stroke-width="1.5"></path><path d="M532.47 943.49L532.47 943.49" stroke="rgba(92, 38, 38, 1)" stroke-width="1.5"></path><circle r="5" cx="-54.9" cy="641.06" fill="rgba(92, 38, 38, 1)"></circle><circle r="5" cx="-65.83" cy="712.62" fill="rgba(92, 38, 38, 1)"></circle><circle r="5" cx="-59.88" cy="840.89" fill="rgba(92, 38, 38, 1)"></circle><circle r="5" cx="-83.94" cy="961.14" fill="rgba(92, 38, 38, 1)"></circle><circle r="5" cx="59.21" cy="628.51" fill="rgba(92, 38, 38, 1)"></circle><circle r="5" cx="56.84" cy="860.91" fill="rgba(92, 38, 38, 1)"></circle><circle r="5" cx="35.25" cy="945.83" fill="rgba(92, 38, 38, 1)"></circle><circle r="5" cx="159.76" cy="408.35" fill="rgba(92, 38, 38, 1)"></circle><circle r="5" cx="154.76" cy="520.92" fill="rgba(92, 38, 38, 1)"></circle><circle r="5" cx="181.81" cy="613.05" fill="rgba(92, 38, 38, 1)"></circle><circle r="5" cx="192.74" cy="720.98" fill="rgba(92, 38, 38, 1)"></circle><circle r="5" cx="157.35" cy="826.94" fill="rgba(92, 38, 38, 1)"></circle><circle r="5" cx="158.61" cy="937.71" fill="rgba(92, 38, 38, 1)"></circle><circle r="5" cx="290.31" cy="-48.73" fill="rgba(92, 38, 38, 1)"></circle><circle r="5" cx="269.84" cy="39.95" fill="rgba(92, 38, 38, 1)"></circle><circle r="5" cx="295.31" cy="297.67" fill="rgba(92, 38, 38, 1)"></circle><circle r="5" cx="279.12" cy="372.7" fill="rgba(92, 38, 38, 1)"></circle><circle r="5" cx="300.53" cy="478.7" fill="rgba(92, 38, 38, 1)"></circle><circle r="5" cx="308.14" cy="621.04" fill="rgba(92, 38, 38, 1)"></circle><circle r="5" cx="288.37" cy="756.83" fill="rgba(92, 38, 38, 1)"></circle><circle r="5" cx="283.24" cy="867.9" fill="rgba(92, 38, 38, 1)"></circle><circle r="5" cx="295.42" cy="952.5" fill="rgba(92, 38, 38, 1)"></circle><circle r="5" cx="414.82" cy="-78.2" fill="rgba(92, 38, 38, 1)"></circle><circle r="5" cx="391.47" cy="80.2" fill="rgba(92, 38, 38, 1)"></circle><circle r="5" cx="388.14" cy="277.87" fill="rgba(92, 38, 38, 1)"></circle><circle r="5" cx="396.2" cy="388.01" fill="rgba(92, 38, 38, 1)"></circle><circle r="5" cx="394.66" cy="499.87" fill="rgba(92, 38, 38, 1)"></circle><circle r="5" cx="397.74" cy="623.48" fill="rgba(92, 38, 38, 1)"></circle><circle r="5" cx="384.94" cy="757.77" fill="rgba(92, 38, 38, 1)"></circle><circle r="5" cx="400.22" cy="867.39" fill="rgba(92, 38, 38, 1)"></circle><circle r="5" cx="529.98" cy="-71.96" fill="rgba(92, 38, 38, 1)"></circle><circle r="5" cx="514.27" cy="56.46" fill="rgba(92, 38, 38, 1)"></circle><circle r="5" cx="482.06" cy="185.81" fill="rgba(92, 38, 38, 1)"></circle><circle r="5" cx="498.04" cy="303.49" fill="rgba(92, 38, 38, 1)"></circle><circle r="5" cx="525.02" cy="394.48" fill="rgba(92, 38, 38, 1)"></circle><circle r="5" cx="495.96" cy="493.56" fill="rgba(92, 38, 38, 1)"></circle><circle r="5" cx="533.95" cy="605.82" fill="rgba(92, 38, 38, 1)"></circle><circle r="5" cx="485.06" cy="755.79" fill="rgba(92, 38, 38, 1)"></circle><circle r="5" cx="492.98" cy="831.47" fill="rgba(92, 38, 38, 1)"></circle><circle r="5" cx="532.47" cy="943.49" fill="rgba(92, 38, 38, 1)"></circle><path d="M-75.96 949.71L-75.96 949.71" stroke="hsl(0, 39.2%, 20.1%)" stroke-width="1.5"></path><path d="M-75.96 949.71L-43.29 860.09" stroke="hsl(0, 39.2%, 20.1%)" stroke-width="1.5"></path><path d="M-75.96 949.71L72.23 850.26" stroke="hsl(0, 39.2%, 20.1%)" stroke-width="1.5"></path><path d="M-75.96 949.71L158.6 970.04" stroke="hsl(0, 39.2%, 20.1%)" stroke-width="1.5"></path><path d="M-75.96 949.71L147.45 843.53" stroke="hsl(0, 39.2%, 20.1%)" stroke-width="1.5"></path><path d="M-75.96 949.71L73.79 728.81" stroke="hsl(0, 39.2%, 20.1%)" stroke-width="1.5"></path><path d="M187.48 747.58L187.48 747.58" stroke="hsl(0, 39.2%, 20.1%)" stroke-width="1.5"></path><path d="M187.48 747.58L276.32 715" stroke="hsl(0, 39.2%, 20.1%)" stroke-width="1.5"></path><path d="M187.48 747.58L147.45 843.53" stroke="hsl(0, 39.2%, 20.1%)" stroke-width="1.5"></path><path d="M187.48 747.58L73.79 728.81" stroke="hsl(0, 39.2%, 20.1%)" stroke-width="1.5"></path><path d="M187.48 747.58L159.06 632.67" stroke="hsl(0, 39.2%, 20.1%)" stroke-width="1.5"></path><path d="M187.48 747.58L72.23 850.26" stroke="hsl(0, 39.2%, 20.1%)" stroke-width="1.5"></path><path d="M187.48 747.58L304.71 857.61" stroke="hsl(0, 39.2%, 20.1%)" stroke-width="1.5"></path><path d="M276.32 715L276.32 715" stroke="hsl(0, 39.2%, 20.1%)" stroke-width="1.5"></path><path d="M276.32 715L302.36 634.94" stroke="hsl(0, 39.2%, 20.1%)" stroke-width="1.5"></path><path d="M276.32 715L159.06 632.67" stroke="hsl(0, 39.2%, 20.1%)" stroke-width="1.5"></path><path d="M276.32 715L304.71 857.61" stroke="hsl(0, 39.2%, 20.1%)" stroke-width="1.5"></path><path d="M295.83 950.36L295.83 950.36" stroke="hsl(0, 39.2%, 20.1%)" stroke-width="1.5"></path><path d="M295.83 950.36L304.71 857.61" stroke="hsl(0, 39.2%, 20.1%)" stroke-width="1.5"></path><path d="M295.83 950.36L418.03 960.85" stroke="hsl(0, 39.2%, 20.1%)" stroke-width="1.5"></path><path d="M295.83 950.36L381.81 845.91" stroke="hsl(0, 39.2%, 20.1%)" stroke-width="1.5"></path><path d="M295.83 950.36L158.6 970.04" stroke="hsl(0, 39.2%, 20.1%)" stroke-width="1.5"></path><path d="M295.83 950.36L147.45 843.53" stroke="hsl(0, 39.2%, 20.1%)" stroke-width="1.5"></path><path d="M295.83 950.36L505.53 984.08" stroke="hsl(0, 39.2%, 20.1%)" stroke-width="1.5"></path><path d="M399.99 156.82L399.99 156.82" stroke="hsl(0, 39.2%, 20.1%)" stroke-width="1.5"></path><path d="M399.99 156.82L374.6 48.99" stroke="hsl(0, 39.2%, 20.1%)" stroke-width="1.5"></path><path d="M399.99 156.82L396.91 278.5" stroke="hsl(0, 39.2%, 20.1%)" stroke-width="1.5"></path><path d="M399.99 156.82L528.99 163.79" stroke="hsl(0, 39.2%, 20.1%)" stroke-width="1.5"></path><path d="M399.99 156.82L521.43 45.73" stroke="hsl(0, 39.2%, 20.1%)" stroke-width="1.5"></path><path d="M399.99 156.82L527.25 268.77" stroke="hsl(0, 39.2%, 20.1%)" stroke-width="1.5"></path><path d="M399.99 156.82L507.66 -33.54" stroke="hsl(0, 39.2%, 20.1%)" stroke-width="1.5"></path><path d="M367.12 489.58L367.12 489.58" stroke="hsl(0, 39.2%, 20.1%)" stroke-width="1.5"></path><path d="M367.12 489.58L262.53 495.03" stroke="hsl(0, 39.2%, 20.1%)" stroke-width="1.5"></path><path d="M367.12 489.58L421.37 384.65" stroke="hsl(0, 39.2%, 20.1%)" stroke-width="1.5"></path><path d="M367.12 489.58L506.06 482.74" stroke="hsl(0, 39.2%, 20.1%)" stroke-width="1.5"></path><path d="M367.12 489.58L280.16 367.59" stroke="hsl(0, 39.2%, 20.1%)" stroke-width="1.5"></path><path d="M367.12 489.58L399.52 635.95" stroke="hsl(0, 39.2%, 20.1%)" stroke-width="1.5"></path><path d="M367.12 489.58L302.36 634.94" stroke="hsl(0, 39.2%, 20.1%)" stroke-width="1.5"></path><path d="M381.81 845.91L381.81 845.91" stroke="hsl(0, 39.2%, 20.1%)" stroke-width="1.5"></path><path d="M381.81 845.91L304.71 857.61" stroke="hsl(0, 39.2%, 20.1%)" stroke-width="1.5"></path><path d="M-43.29 860.09L-43.29 860.09" stroke="hsl(0, 39.2%, 20.1%)" stroke-width="1.5"></path><path d="M-43.29 860.09L72.23 850.26" stroke="hsl(0, 39.2%, 20.1%)" stroke-width="1.5"></path><path d="M-43.29 860.09L73.79 728.81" stroke="hsl(0, 39.2%, 20.1%)" stroke-width="1.5"></path><path d="M-43.29 860.09L147.45 843.53" stroke="hsl(0, 39.2%, 20.1%)" stroke-width="1.5"></path><path d="M-43.29 860.09L158.6 970.04" stroke="hsl(0, 39.2%, 20.1%)" stroke-width="1.5"></path><path d="M73.79 728.81L73.79 728.81" stroke="hsl(0, 39.2%, 20.1%)" stroke-width="1.5"></path><path d="M73.79 728.81L72.23 850.26" stroke="hsl(0, 39.2%, 20.1%)" stroke-width="1.5"></path><path d="M73.79 728.81L159.06 632.67" stroke="hsl(0, 39.2%, 20.1%)" stroke-width="1.5"></path><path d="M73.79 728.81L147.45 843.53" stroke="hsl(0, 39.2%, 20.1%)" stroke-width="1.5"></path><path d="M72.23 850.26L72.23 850.26" stroke="hsl(0, 39.2%, 20.1%)" stroke-width="1.5"></path><path d="M72.23 850.26L147.45 843.53" stroke="hsl(0, 39.2%, 20.1%)" stroke-width="1.5"></path><path d="M72.23 850.26L158.6 970.04" stroke="hsl(0, 39.2%, 20.1%)" stroke-width="1.5"></path><path d="M159.06 632.67L159.06 632.67" stroke="hsl(0, 39.2%, 20.1%)" stroke-width="1.5"></path><path d="M159.06 632.67L302.36 634.94" stroke="hsl(0, 39.2%, 20.1%)" stroke-width="1.5"></path><path d="M159.06 632.67L262.53 495.03" stroke="hsl(0, 39.2%, 20.1%)" stroke-width="1.5"></path><path d="M147.45 843.53L147.45 843.53" stroke="hsl(0, 39.2%, 20.1%)" stroke-width="1.5"></path><path d="M158.6 970.04L158.6 970.04" stroke="hsl(0, 39.2%, 20.1%)" stroke-width="1.5"></path><path d="M158.6 970.04L147.45 843.53" stroke="hsl(0, 39.2%, 20.1%)" stroke-width="1.5"></path><path d="M280.16 367.59L280.16 367.59" stroke="hsl(0, 39.2%, 20.1%)" stroke-width="1.5"></path><path d="M280.16 367.59L262.53 495.03" stroke="hsl(0, 39.2%, 20.1%)" stroke-width="1.5"></path><path d="M280.16 367.59L421.37 384.65" stroke="hsl(0, 39.2%, 20.1%)" stroke-width="1.5"></path><path d="M280.16 367.59L396.91 278.5" stroke="hsl(0, 39.2%, 20.1%)" stroke-width="1.5"></path><path d="M280.16 367.59L399.99 156.82" stroke="hsl(0, 39.2%, 20.1%)" stroke-width="1.5"></path><path d="M262.53 495.03L262.53 495.03" stroke="hsl(0, 39.2%, 20.1%)" stroke-width="1.5"></path><path d="M262.53 495.03L302.36 634.94" stroke="hsl(0, 39.2%, 20.1%)" stroke-width="1.5"></path><path d="M302.36 634.94L302.36 634.94" stroke="hsl(0, 39.2%, 20.1%)" stroke-width="1.5"></path><path d="M302.36 634.94L399.52 635.95" stroke="hsl(0, 39.2%, 20.1%)" stroke-width="1.5"></path><path d="M304.71 857.61L304.71 857.61" stroke="hsl(0, 39.2%, 20.1%)" stroke-width="1.5"></path><path d="M412.85 -68.78L412.85 -68.78" stroke="hsl(0, 39.2%, 20.1%)" stroke-width="1.5"></path><path d="M412.85 -68.78L507.66 -33.54" stroke="hsl(0, 39.2%, 20.1%)" stroke-width="1.5"></path><path d="M412.85 -68.78L374.6 48.99" stroke="hsl(0, 39.2%, 20.1%)" stroke-width="1.5"></path><path d="M412.85 -68.78L521.43 45.73" stroke="hsl(0, 39.2%, 20.1%)" stroke-width="1.5"></path><path d="M374.6 48.99L374.6 48.99" stroke="hsl(0, 39.2%, 20.1%)" stroke-width="1.5"></path><path d="M374.6 48.99L521.43 45.73" stroke="hsl(0, 39.2%, 20.1%)" stroke-width="1.5"></path><path d="M374.6 48.99L507.66 -33.54" stroke="hsl(0, 39.2%, 20.1%)" stroke-width="1.5"></path><path d="M374.6 48.99L528.99 163.79" stroke="hsl(0, 39.2%, 20.1%)" stroke-width="1.5"></path><path d="M374.6 48.99L396.91 278.5" stroke="hsl(0, 39.2%, 20.1%)" stroke-width="1.5"></path><path d="M396.91 278.5L396.91 278.5" stroke="hsl(0, 39.2%, 20.1%)" stroke-width="1.5"></path><path d="M396.91 278.5L421.37 384.65" stroke="hsl(0, 39.2%, 20.1%)" stroke-width="1.5"></path><path d="M396.91 278.5L527.25 268.77" stroke="hsl(0, 39.2%, 20.1%)" stroke-width="1.5"></path><path d="M396.91 278.5L528.99 163.79" stroke="hsl(0, 39.2%, 20.1%)" stroke-width="1.5"></path><path d="M421.37 384.65L421.37 384.65" stroke="hsl(0, 39.2%, 20.1%)" stroke-width="1.5"></path><path d="M421.37 384.65L519.82 406.53" stroke="hsl(0, 39.2%, 20.1%)" stroke-width="1.5"></path><path d="M421.37 384.65L506.06 482.74" stroke="hsl(0, 39.2%, 20.1%)" stroke-width="1.5"></path><path d="M399.52 635.95L399.52 635.95" stroke="hsl(0, 39.2%, 20.1%)" stroke-width="1.5"></path><path d="M399.52 635.95L486.65 640.88" stroke="hsl(0, 39.2%, 20.1%)" stroke-width="1.5"></path><path d="M418.03 960.85L418.03 960.85" stroke="hsl(0, 39.2%, 20.1%)" stroke-width="1.5"></path><path d="M418.03 960.85L505.53 984.08" stroke="hsl(0, 39.2%, 20.1%)" stroke-width="1.5"></path><path d="M418.03 960.85L381.81 845.91" stroke="hsl(0, 39.2%, 20.1%)" stroke-width="1.5"></path><path d="M418.03 960.85L304.71 857.61" stroke="hsl(0, 39.2%, 20.1%)" stroke-width="1.5"></path><path d="M418.03 960.85L527.88 838.32" stroke="hsl(0, 39.2%, 20.1%)" stroke-width="1.5"></path><path d="M507.66 -33.54L507.66 -33.54" stroke="hsl(0, 39.2%, 20.1%)" stroke-width="1.5"></path><path d="M507.66 -33.54L521.43 45.73" stroke="hsl(0, 39.2%, 20.1%)" stroke-width="1.5"></path><path d="M521.43 45.73L521.43 45.73" stroke="hsl(0, 39.2%, 20.1%)" stroke-width="1.5"></path><path d="M521.43 45.73L528.99 163.79" stroke="hsl(0, 39.2%, 20.1%)" stroke-width="1.5"></path><path d="M521.43 45.73L527.25 268.77" stroke="hsl(0, 39.2%, 20.1%)" stroke-width="1.5"></path><path d="M528.99 163.79L528.99 163.79" stroke="hsl(0, 39.2%, 20.1%)" stroke-width="1.5"></path><path d="M528.99 163.79L527.25 268.77" stroke="hsl(0, 39.2%, 20.1%)" stroke-width="1.5"></path><path d="M528.99 163.79L507.66 -33.54" stroke="hsl(0, 39.2%, 20.1%)" stroke-width="1.5"></path><path d="M527.25 268.77L527.25 268.77" stroke="hsl(0, 39.2%, 20.1%)" stroke-width="1.5"></path><path d="M519.82 406.53L519.82 406.53" stroke="hsl(0, 39.2%, 20.1%)" stroke-width="1.5"></path><path d="M519.82 406.53L506.06 482.74" stroke="hsl(0, 39.2%, 20.1%)" stroke-width="1.5"></path><path d="M519.82 406.53L527.25 268.77" stroke="hsl(0, 39.2%, 20.1%)" stroke-width="1.5"></path><path d="M506.06 482.74L506.06 482.74" stroke="hsl(0, 39.2%, 20.1%)" stroke-width="1.5"></path><path d="M486.65 640.88L486.65 640.88" stroke="hsl(0, 39.2%, 20.1%)" stroke-width="1.5"></path><path d="M486.65 640.88L495.25 731.74" stroke="hsl(0, 39.2%, 20.1%)" stroke-width="1.5"></path><path d="M486.65 640.88L506.06 482.74" stroke="hsl(0, 39.2%, 20.1%)" stroke-width="1.5"></path><path d="M486.65 640.88L302.36 634.94" stroke="hsl(0, 39.2%, 20.1%)" stroke-width="1.5"></path><path d="M495.25 731.74L495.25 731.74" stroke="hsl(0, 39.2%, 20.1%)" stroke-width="1.5"></path><path d="M495.25 731.74L527.88 838.32" stroke="hsl(0, 39.2%, 20.1%)" stroke-width="1.5"></path><path d="M495.25 731.74L399.52 635.95" stroke="hsl(0, 39.2%, 20.1%)" stroke-width="1.5"></path><path d="M495.25 731.74L381.81 845.91" stroke="hsl(0, 39.2%, 20.1%)" stroke-width="1.5"></path><path d="M527.88 838.32L527.88 838.32" stroke="hsl(0, 39.2%, 20.1%)" stroke-width="1.5"></path><path d="M527.88 838.32L381.81 845.91" stroke="hsl(0, 39.2%, 20.1%)" stroke-width="1.5"></path><path d="M527.88 838.32L505.53 984.08" stroke="hsl(0, 39.2%, 20.1%)" stroke-width="1.5"></path><path d="M505.53 984.08L505.53 984.08" stroke="hsl(0, 39.2%, 20.1%)" stroke-width="1.5"></path><path d="M505.53 984.08L381.81 845.91" stroke="hsl(0, 39.2%, 20.1%)" stroke-width="1.5"></path><circle r="25" cx="-75.96" cy="949.71" fill="url(#SvgjsRadialGradient1077)"></circle><circle r="25" cx="187.48" cy="747.58" fill="url(#SvgjsRadialGradient1077)"></circle><circle r="25" cx="276.32" cy="715" fill="url(#SvgjsRadialGradient1077)"></circle><circle r="25" cx="295.83" cy="950.36" fill="url(#SvgjsRadialGradient1077)"></circle><circle r="25" cx="399.99" cy="156.82" fill="url(#SvgjsRadialGradient1077)"></circle><circle r="25" cx="367.12" cy="489.58" fill="url(#SvgjsRadialGradient1077)"></circle><circle r="25" cx="381.81" cy="845.91" fill="url(#SvgjsRadialGradient1077)"></circle><circle r="5" cx="-43.29" cy="860.09" fill="#9b8c8c"></circle><circle r="5" cx="73.79" cy="728.81" fill="#9b8c8c"></circle><circle r="5" cx="72.23" cy="850.26" fill="#9b8c8c"></circle><circle r="5" cx="159.06" cy="632.67" fill="#9b8c8c"></circle><circle r="5" cx="147.45" cy="843.53" fill="#9b8c8c"></circle><circle r="5" cx="158.6" cy="970.04" fill="#9b8c8c"></circle><circle r="5" cx="280.16" cy="367.59" fill="#9b8c8c"></circle><circle r="5" cx="262.53" cy="495.03" fill="#9b8c8c"></circle><circle r="5" cx="302.36" cy="634.94" fill="#9b8c8c"></circle><circle r="5" cx="304.71" cy="857.61" fill="#9b8c8c"></circle><circle r="5" cx="412.85" cy="-68.78" fill="#9b8c8c"></circle><circle r="5" cx="374.6" cy="48.99" fill="#9b8c8c"></circle><circle r="5" cx="396.91" cy="278.5" fill="#9b8c8c"></circle><circle r="5" cx="421.37" cy="384.65" fill="#9b8c8c"></circle><circle r="5" cx="399.52" cy="635.95" fill="#9b8c8c"></circle><circle r="5" cx="418.03" cy="960.85" fill="#9b8c8c"></circle><circle r="5" cx="507.66" cy="-33.54" fill="#9b8c8c"></circle><circle r="5" cx="521.43" cy="45.73" fill="#9b8c8c"></circle><circle r="5" cx="528.99" cy="163.79" fill="#9b8c8c"></circle><circle r="5" cx="527.25" cy="268.77" fill="#9b8c8c"></circle><circle r="5" cx="519.82" cy="406.53" fill="#9b8c8c"></circle><circle r="5" cx="506.06" cy="482.74" fill="#9b8c8c"></circle><circle r="5" cx="486.65" cy="640.88" fill="#9b8c8c"></circle><circle r="5" cx="495.25" cy="731.74" fill="#9b8c8c"></circle><circle r="5" cx="527.88" cy="838.32" fill="#9b8c8c"></circle><circle r="5" cx="505.53" cy="984.08" fill="#9b8c8c"></circle></g><defs><mask id="SvgjsMask1076"><rect width="400" height="900" fill="#ffffff"></rect></mask><radialGradient id="SvgjsRadialGradient1077"><stop stop-color="#ffffff" offset="0.1"></stop><stop stop-color="rgba(55, 24, 24, 1)" offset="0.2"></stop><stop stop-color="rgba(55, 24, 24, 0)" offset="1"></stop></radialGradient></defs></svg>