<svg xmlns="http://www.w3.org/2000/svg" version="1.1" xmlns:xlink="http://www.w3.org/1999/xlink" xmlns:svgjs="http://svgjs.com/svgjs" width="1440" height="700" preserveAspectRatio="none" viewBox="0 0 1440 800"><g mask="url(&quot;#SvgjsMask1018&quot;)" fill="none"><rect width="1440" height="800" x="0" y="0" fill="rgba(223, 88, 88, 1)"></rect><path d="M-38.94 558.16L-38.94 558.16" stroke="rgba(135, 55, 55, 1)" stroke-width="1.5"></path><path d="M-38.94 558.16L48.1 491.64" stroke="rgba(135, 55, 55, 1)" stroke-width="1.5"></path><path d="M-38.94 558.16L-105.19 662.73" stroke="rgba(135, 55, 55, 1)" stroke-width="1.5"></path><path d="M-38.94 558.16L62.4 685.08" stroke="rgba(135, 55, 55, 1)" stroke-width="1.5"></path><path d="M-38.94 558.16L193.32 542.18" stroke="rgba(135, 55, 55, 1)" stroke-width="1.5"></path><path d="M-105.19 662.73L-105.19 662.73" stroke="rgba(135, 55, 55, 1)" stroke-width="1.5"></path><path d="M-105.19 662.73L62.4 685.08" stroke="rgba(135, 55, 55, 1)" stroke-width="1.5"></path><path d="M-105.19 662.73L-76.48 845.63" stroke="rgba(135, 55, 55, 1)" stroke-width="1.5"></path><path d="M-76.48 845.63L-76.48 845.63" stroke="rgba(135, 55, 55, 1)" stroke-width="1.5"></path><path d="M-76.48 845.63L70.17 804.67" stroke="rgba(135, 55, 55, 1)" stroke-width="1.5"></path><path d="M-76.48 845.63L-75.44 1009.66" stroke="rgba(135, 55, 55, 1)" stroke-width="1.5"></path><path d="M-75.44 1009.66L-75.44 1009.66" stroke="rgba(135, 55, 55, 1)" stroke-width="1.5"></path><path d="M-75.44 1009.66L102.31 994.96" stroke="rgba(135, 55, 55, 1)" stroke-width="1.5"></path><path d="M48.1 491.64L48.1 491.64" stroke="rgba(135, 55, 55, 1)" stroke-width="1.5"></path><path d="M48.1 491.64L193.32 542.18" stroke="rgba(135, 55, 55, 1)" stroke-width="1.5"></path><path d="M48.1 491.64L62.4 685.08" stroke="rgba(135, 55, 55, 1)" stroke-width="1.5"></path><path d="M62.4 685.08L62.4 685.08" stroke="rgba(135, 55, 55, 1)" stroke-width="1.5"></path><path d="M62.4 685.08L70.17 804.67" stroke="rgba(135, 55, 55, 1)" stroke-width="1.5"></path><path d="M62.4 685.08L200.56 667.78" stroke="rgba(135, 55, 55, 1)" stroke-width="1.5"></path><path d="M62.4 685.08L193.32 542.18" stroke="rgba(135, 55, 55, 1)" stroke-width="1.5"></path><path d="M70.17 804.67L70.17 804.67" stroke="rgba(135, 55, 55, 1)" stroke-width="1.5"></path><path d="M70.17 804.67L224.79 799.78" stroke="rgba(135, 55, 55, 1)" stroke-width="1.5"></path><path d="M102.31 994.96L102.31 994.96" stroke="rgba(135, 55, 55, 1)" stroke-width="1.5"></path><path d="M102.31 994.96L70.17 804.67" stroke="rgba(135, 55, 55, 1)" stroke-width="1.5"></path><path d="M102.31 994.96L224.79 799.78" stroke="rgba(135, 55, 55, 1)" stroke-width="1.5"></path><path d="M102.31 994.96L-76.48 845.63" stroke="rgba(135, 55, 55, 1)" stroke-width="1.5"></path><path d="M193.32 542.18L193.32 542.18" stroke="rgba(135, 55, 55, 1)" stroke-width="1.5"></path><path d="M193.32 542.18L200.56 667.78" stroke="rgba(135, 55, 55, 1)" stroke-width="1.5"></path><path d="M200.56 667.78L200.56 667.78" stroke="rgba(135, 55, 55, 1)" stroke-width="1.5"></path><path d="M200.56 667.78L224.79 799.78" stroke="rgba(135, 55, 55, 1)" stroke-width="1.5"></path><path d="M200.56 667.78L348.14 687.12" stroke="rgba(135, 55, 55, 1)" stroke-width="1.5"></path><path d="M224.79 799.78L224.79 799.78" stroke="rgba(135, 55, 55, 1)" stroke-width="1.5"></path><path d="M224.79 799.78L358.5 839.7" stroke="rgba(135, 55, 55, 1)" stroke-width="1.5"></path><path d="M356.83 488.04L356.83 488.04" stroke="rgba(135, 55, 55, 1)" stroke-width="1.5"></path><path d="M356.83 488.04L193.32 542.18" stroke="rgba(135, 55, 55, 1)" stroke-width="1.5"></path><path d="M356.83 488.04L536.33 509.47" stroke="rgba(135, 55, 55, 1)" stroke-width="1.5"></path><path d="M356.83 488.04L348.14 687.12" stroke="rgba(135, 55, 55, 1)" stroke-width="1.5"></path><path d="M356.83 488.04L200.56 667.78" stroke="rgba(135, 55, 55, 1)" stroke-width="1.5"></path><path d="M356.83 488.04L560.61 667.35" stroke="rgba(135, 55, 55, 1)" stroke-width="1.5"></path><path d="M348.14 687.12L348.14 687.12" stroke="rgba(135, 55, 55, 1)" stroke-width="1.5"></path><path d="M348.14 687.12L358.5 839.7" stroke="rgba(135, 55, 55, 1)" stroke-width="1.5"></path><path d="M348.14 687.12L224.79 799.78" stroke="rgba(135, 55, 55, 1)" stroke-width="1.5"></path><path d="M358.5 839.7L358.5 839.7" stroke="rgba(135, 55, 55, 1)" stroke-width="1.5"></path><path d="M358.5 839.7L411.38 1001.95" stroke="rgba(135, 55, 55, 1)" stroke-width="1.5"></path><path d="M358.5 839.7L546.75 856.14" stroke="rgba(135, 55, 55, 1)" stroke-width="1.5"></path><path d="M358.5 839.7L514.4 950.41" stroke="rgba(135, 55, 55, 1)" stroke-width="1.5"></path><path d="M411.38 1001.95L411.38 1001.95" stroke="rgba(135, 55, 55, 1)" stroke-width="1.5"></path><path d="M411.38 1001.95L514.4 950.41" stroke="rgba(135, 55, 55, 1)" stroke-width="1.5"></path><path d="M536.33 509.47L536.33 509.47" stroke="rgba(135, 55, 55, 1)" stroke-width="1.5"></path><path d="M536.33 509.47L667.86 519.66" stroke="rgba(135, 55, 55, 1)" stroke-width="1.5"></path><path d="M536.33 509.47L560.61 667.35" stroke="rgba(135, 55, 55, 1)" stroke-width="1.5"></path><path d="M560.61 667.35L560.61 667.35" stroke="rgba(135, 55, 55, 1)" stroke-width="1.5"></path><path d="M560.61 667.35L704.69 648.41" stroke="rgba(135, 55, 55, 1)" stroke-width="1.5"></path><path d="M560.61 667.35L663.05 788.32" stroke="rgba(135, 55, 55, 1)" stroke-width="1.5"></path><path d="M546.75 856.14L546.75 856.14" stroke="rgba(135, 55, 55, 1)" stroke-width="1.5"></path><path d="M546.75 856.14L514.4 950.41" stroke="rgba(135, 55, 55, 1)" stroke-width="1.5"></path><path d="M546.75 856.14L663.05 788.32" stroke="rgba(135, 55, 55, 1)" stroke-width="1.5"></path><path d="M514.4 950.41L514.4 950.41" stroke="rgba(135, 55, 55, 1)" stroke-width="1.5"></path><path d="M640.48 349.68L640.48 349.68" stroke="rgba(135, 55, 55, 1)" stroke-width="1.5"></path><path d="M640.48 349.68L667.86 519.66" stroke="rgba(135, 55, 55, 1)" stroke-width="1.5"></path><path d="M640.48 349.68L536.33 509.47" stroke="rgba(135, 55, 55, 1)" stroke-width="1.5"></path><path d="M640.48 349.68L835.73 390.65" stroke="rgba(135, 55, 55, 1)" stroke-width="1.5"></path><path d="M640.48 349.68L828.32 258.56" stroke="rgba(135, 55, 55, 1)" stroke-width="1.5"></path><path d="M667.86 519.66L667.86 519.66" stroke="rgba(135, 55, 55, 1)" stroke-width="1.5"></path><path d="M667.86 519.66L704.69 648.41" stroke="rgba(135, 55, 55, 1)" stroke-width="1.5"></path><path d="M704.69 648.41L704.69 648.41" stroke="rgba(135, 55, 55, 1)" stroke-width="1.5"></path><path d="M704.69 648.41L835.94 651.74" stroke="rgba(135, 55, 55, 1)" stroke-width="1.5"></path><path d="M704.69 648.41L663.05 788.32" stroke="rgba(135, 55, 55, 1)" stroke-width="1.5"></path><path d="M663.05 788.32L663.05 788.32" stroke="rgba(135, 55, 55, 1)" stroke-width="1.5"></path><path d="M692.56 986.18L692.56 986.18" stroke="rgba(135, 55, 55, 1)" stroke-width="1.5"></path><path d="M692.56 986.18L789.26 847.03" stroke="rgba(135, 55, 55, 1)" stroke-width="1.5"></path><path d="M692.56 986.18L514.4 950.41" stroke="rgba(135, 55, 55, 1)" stroke-width="1.5"></path><path d="M692.56 986.18L546.75 856.14" stroke="rgba(135, 55, 55, 1)" stroke-width="1.5"></path><path d="M828.32 258.56L828.32 258.56" stroke="rgba(135, 55, 55, 1)" stroke-width="1.5"></path><path d="M828.32 258.56L835.73 390.65" stroke="rgba(135, 55, 55, 1)" stroke-width="1.5"></path><path d="M828.32 258.56L978.38 195.51" stroke="rgba(135, 55, 55, 1)" stroke-width="1.5"></path><path d="M835.73 390.65L835.73 390.65" stroke="rgba(135, 55, 55, 1)" stroke-width="1.5"></path><path d="M835.73 390.65L858.02 522.92" stroke="rgba(135, 55, 55, 1)" stroke-width="1.5"></path><path d="M835.73 390.65L998.08 378.05" stroke="rgba(135, 55, 55, 1)" stroke-width="1.5"></path><path d="M835.73 390.65L969.29 502.74" stroke="rgba(135, 55, 55, 1)" stroke-width="1.5"></path><path d="M858.02 522.92L858.02 522.92" stroke="rgba(135, 55, 55, 1)" stroke-width="1.5"></path><path d="M858.02 522.92L969.29 502.74" stroke="rgba(135, 55, 55, 1)" stroke-width="1.5"></path><path d="M858.02 522.92L835.94 651.74" stroke="rgba(135, 55, 55, 1)" stroke-width="1.5"></path><path d="M835.94 651.74L835.94 651.74" stroke="rgba(135, 55, 55, 1)" stroke-width="1.5"></path><path d="M835.94 651.74L1007.3 681.36" stroke="rgba(135, 55, 55, 1)" stroke-width="1.5"></path><path d="M835.94 651.74L969.29 502.74" stroke="rgba(135, 55, 55, 1)" stroke-width="1.5"></path><path d="M835.94 651.74L789.26 847.03" stroke="rgba(135, 55, 55, 1)" stroke-width="1.5"></path><path d="M789.26 847.03L789.26 847.03" stroke="rgba(135, 55, 55, 1)" stroke-width="1.5"></path><path d="M789.26 847.03L663.05 788.32" stroke="rgba(135, 55, 55, 1)" stroke-width="1.5"></path><path d="M789.26 847.03L704.69 648.41" stroke="rgba(135, 55, 55, 1)" stroke-width="1.5"></path><path d="M789.26 847.03L968.32 972.88" stroke="rgba(135, 55, 55, 1)" stroke-width="1.5"></path><path d="M999.61 -57.29L999.61 -57.29" stroke="rgba(135, 55, 55, 1)" stroke-width="1.5"></path><path d="M999.61 -57.29L1098.36 -43.89" stroke="rgba(135, 55, 55, 1)" stroke-width="1.5"></path><path d="M999.61 -57.29L1095.25 66.37" stroke="rgba(135, 55, 55, 1)" stroke-width="1.5"></path><path d="M999.61 -57.29L977.85 111.14" stroke="rgba(135, 55, 55, 1)" stroke-width="1.5"></path><path d="M977.85 111.14L977.85 111.14" stroke="rgba(135, 55, 55, 1)" stroke-width="1.5"></path><path d="M977.85 111.14L978.38 195.51" stroke="rgba(135, 55, 55, 1)" stroke-width="1.5"></path><path d="M977.85 111.14L1095.25 66.37" stroke="rgba(135, 55, 55, 1)" stroke-width="1.5"></path><path d="M978.38 195.51L978.38 195.51" stroke="rgba(135, 55, 55, 1)" stroke-width="1.5"></path><path d="M978.38 195.51L1095.25 66.37" stroke="rgba(135, 55, 55, 1)" stroke-width="1.5"></path><path d="M978.38 195.51L1159.39 213.23" stroke="rgba(135, 55, 55, 1)" stroke-width="1.5"></path><path d="M978.38 195.51L998.08 378.05" stroke="rgba(135, 55, 55, 1)" stroke-width="1.5"></path><path d="M998.08 378.05L998.08 378.05" stroke="rgba(135, 55, 55, 1)" stroke-width="1.5"></path><path d="M998.08 378.05L1113.73 390.04" stroke="rgba(135, 55, 55, 1)" stroke-width="1.5"></path><path d="M998.08 378.05L969.29 502.74" stroke="rgba(135, 55, 55, 1)" stroke-width="1.5"></path><path d="M969.29 502.74L969.29 502.74" stroke="rgba(135, 55, 55, 1)" stroke-width="1.5"></path><path d="M969.29 502.74L1113.19 506.26" stroke="rgba(135, 55, 55, 1)" stroke-width="1.5"></path><path d="M1007.3 681.36L1007.3 681.36" stroke="rgba(135, 55, 55, 1)" stroke-width="1.5"></path><path d="M1007.3 681.36L1002.26 794.38" stroke="rgba(135, 55, 55, 1)" stroke-width="1.5"></path><path d="M1007.3 681.36L1121.75 643.04" stroke="rgba(135, 55, 55, 1)" stroke-width="1.5"></path><path d="M1007.3 681.36L969.29 502.74" stroke="rgba(135, 55, 55, 1)" stroke-width="1.5"></path><path d="M1007.3 681.36L1113.19 506.26" stroke="rgba(135, 55, 55, 1)" stroke-width="1.5"></path><path d="M1002.26 794.38L1002.26 794.38" stroke="rgba(135, 55, 55, 1)" stroke-width="1.5"></path><path d="M1002.26 794.38L968.32 972.88" stroke="rgba(135, 55, 55, 1)" stroke-width="1.5"></path><path d="M1002.26 794.38L1121.75 643.04" stroke="rgba(135, 55, 55, 1)" stroke-width="1.5"></path><path d="M1002.26 794.38L1132.15 951.66" stroke="rgba(135, 55, 55, 1)" stroke-width="1.5"></path><path d="M1002.26 794.38L835.94 651.74" stroke="rgba(135, 55, 55, 1)" stroke-width="1.5"></path><path d="M1002.26 794.38L789.26 847.03" stroke="rgba(135, 55, 55, 1)" stroke-width="1.5"></path><path d="M968.32 972.88L968.32 972.88" stroke="rgba(135, 55, 55, 1)" stroke-width="1.5"></path><path d="M968.32 972.88L1132.15 951.66" stroke="rgba(135, 55, 55, 1)" stroke-width="1.5"></path><path d="M968.32 972.88L692.56 986.18" stroke="rgba(135, 55, 55, 1)" stroke-width="1.5"></path><path d="M1098.36 -43.89L1098.36 -43.89" stroke="rgba(135, 55, 55, 1)" stroke-width="1.5"></path><path d="M1098.36 -43.89L1095.25 66.37" stroke="rgba(135, 55, 55, 1)" stroke-width="1.5"></path><path d="M1098.36 -43.89L977.85 111.14" stroke="rgba(135, 55, 55, 1)" stroke-width="1.5"></path><path d="M1098.36 -43.89L1159.39 213.23" stroke="rgba(135, 55, 55, 1)" stroke-width="1.5"></path><path d="M1098.36 -43.89L978.38 195.51" stroke="rgba(135, 55, 55, 1)" stroke-width="1.5"></path><path d="M1095.25 66.37L1095.25 66.37" stroke="rgba(135, 55, 55, 1)" stroke-width="1.5"></path><path d="M1095.25 66.37L1159.39 213.23" stroke="rgba(135, 55, 55, 1)" stroke-width="1.5"></path><path d="M1159.39 213.23L1159.39 213.23" stroke="rgba(135, 55, 55, 1)" stroke-width="1.5"></path><path d="M1159.39 213.23L1302.37 205.17" stroke="rgba(135, 55, 55, 1)" stroke-width="1.5"></path><path d="M1159.39 213.23L1238.35 351.02" stroke="rgba(135, 55, 55, 1)" stroke-width="1.5"></path><path d="M1159.39 213.23L1113.73 390.04" stroke="rgba(135, 55, 55, 1)" stroke-width="1.5"></path><path d="M1113.73 390.04L1113.73 390.04" stroke="rgba(135, 55, 55, 1)" stroke-width="1.5"></path><path d="M1113.73 390.04L1113.19 506.26" stroke="rgba(135, 55, 55, 1)" stroke-width="1.5"></path><path d="M1113.73 390.04L1238.35 351.02" stroke="rgba(135, 55, 55, 1)" stroke-width="1.5"></path><path d="M1113.73 390.04L969.29 502.74" stroke="rgba(135, 55, 55, 1)" stroke-width="1.5"></path><path d="M1113.73 390.04L978.38 195.51" stroke="rgba(135, 55, 55, 1)" stroke-width="1.5"></path><path d="M1113.19 506.26L1113.19 506.26" stroke="rgba(135, 55, 55, 1)" stroke-width="1.5"></path><path d="M1113.19 506.26L1121.75 643.04" stroke="rgba(135, 55, 55, 1)" stroke-width="1.5"></path><path d="M1113.19 506.26L998.08 378.05" stroke="rgba(135, 55, 55, 1)" stroke-width="1.5"></path><path d="M1113.19 506.26L1238.35 351.02" stroke="rgba(135, 55, 55, 1)" stroke-width="1.5"></path><path d="M1121.75 643.04L1121.75 643.04" stroke="rgba(135, 55, 55, 1)" stroke-width="1.5"></path><path d="M1121.75 643.04L1256.74 710.74" stroke="rgba(135, 55, 55, 1)" stroke-width="1.5"></path><path d="M1121.75 643.04L969.29 502.74" stroke="rgba(135, 55, 55, 1)" stroke-width="1.5"></path><path d="M1132.15 951.66L1132.15 951.66" stroke="rgba(135, 55, 55, 1)" stroke-width="1.5"></path><path d="M1132.15 951.66L1267.12 995.64" stroke="rgba(135, 55, 55, 1)" stroke-width="1.5"></path><path d="M1302.37 205.17L1302.37 205.17" stroke="rgba(135, 55, 55, 1)" stroke-width="1.5"></path><path d="M1302.37 205.17L1415.09 189.13" stroke="rgba(135, 55, 55, 1)" stroke-width="1.5"></path><path d="M1302.37 205.17L1238.35 351.02" stroke="rgba(135, 55, 55, 1)" stroke-width="1.5"></path><path d="M1238.35 351.02L1238.35 351.02" stroke="rgba(135, 55, 55, 1)" stroke-width="1.5"></path><path d="M1238.35 351.02L1408.46 353.74" stroke="rgba(135, 55, 55, 1)" stroke-width="1.5"></path><path d="M1256.74 710.74L1256.74 710.74" stroke="rgba(135, 55, 55, 1)" stroke-width="1.5"></path><path d="M1256.74 710.74L1261.58 857.34" stroke="rgba(135, 55, 55, 1)" stroke-width="1.5"></path><path d="M1256.74 710.74L1408.16 793.12" stroke="rgba(135, 55, 55, 1)" stroke-width="1.5"></path><path d="M1256.74 710.74L1423.18 663.33" stroke="rgba(135, 55, 55, 1)" stroke-width="1.5"></path><path d="M1261.58 857.34L1261.58 857.34" stroke="rgba(135, 55, 55, 1)" stroke-width="1.5"></path><path d="M1261.58 857.34L1267.12 995.64" stroke="rgba(135, 55, 55, 1)" stroke-width="1.5"></path><path d="M1267.12 995.64L1267.12 995.64" stroke="rgba(135, 55, 55, 1)" stroke-width="1.5"></path><path d="M1267.12 995.64L1408.16 793.12" stroke="rgba(135, 55, 55, 1)" stroke-width="1.5"></path><path d="M1267.12 995.64L1256.74 710.74" stroke="rgba(135, 55, 55, 1)" stroke-width="1.5"></path><path d="M1397.2 -96.5L1397.2 -96.5" stroke="rgba(135, 55, 55, 1)" stroke-width="1.5"></path><path d="M1397.2 -96.5L1565.81 -53.07" stroke="rgba(135, 55, 55, 1)" stroke-width="1.5"></path><path d="M1397.2 -96.5L1454.73 104.16" stroke="rgba(135, 55, 55, 1)" stroke-width="1.5"></path><path d="M1397.2 -96.5L1568.37 65.93" stroke="rgba(135, 55, 55, 1)" stroke-width="1.5"></path><path d="M1454.73 104.16L1454.73 104.16" stroke="rgba(135, 55, 55, 1)" stroke-width="1.5"></path><path d="M1454.73 104.16L1415.09 189.13" stroke="rgba(135, 55, 55, 1)" stroke-width="1.5"></path><path d="M1454.73 104.16L1568.37 65.93" stroke="rgba(135, 55, 55, 1)" stroke-width="1.5"></path><path d="M1454.73 104.16L1302.37 205.17" stroke="rgba(135, 55, 55, 1)" stroke-width="1.5"></path><path d="M1415.09 189.13L1415.09 189.13" stroke="rgba(135, 55, 55, 1)" stroke-width="1.5"></path><path d="M1415.09 189.13L1408.46 353.74" stroke="rgba(135, 55, 55, 1)" stroke-width="1.5"></path><path d="M1415.09 189.13L1590.68 250.85" stroke="rgba(135, 55, 55, 1)" stroke-width="1.5"></path><path d="M1415.09 189.13L1568.37 65.93" stroke="rgba(135, 55, 55, 1)" stroke-width="1.5"></path><path d="M1408.46 353.74L1408.46 353.74" stroke="rgba(135, 55, 55, 1)" stroke-width="1.5"></path><path d="M1408.46 353.74L1562.58 351.42" stroke="rgba(135, 55, 55, 1)" stroke-width="1.5"></path><path d="M1408.46 353.74L1302.37 205.17" stroke="rgba(135, 55, 55, 1)" stroke-width="1.5"></path><path d="M1408.46 353.74L1455.93 543.74" stroke="rgba(135, 55, 55, 1)" stroke-width="1.5"></path><path d="M1408.46 353.74L1590.68 250.85" stroke="rgba(135, 55, 55, 1)" stroke-width="1.5"></path><path d="M1455.93 543.74L1455.93 543.74" stroke="rgba(135, 55, 55, 1)" stroke-width="1.5"></path><path d="M1455.93 543.74L1423.18 663.33" stroke="rgba(135, 55, 55, 1)" stroke-width="1.5"></path><path d="M1455.93 543.74L1591.26 649.27" stroke="rgba(135, 55, 55, 1)" stroke-width="1.5"></path><path d="M1455.93 543.74L1562.58 351.42" stroke="rgba(135, 55, 55, 1)" stroke-width="1.5"></path><path d="M1455.93 543.74L1408.16 793.12" stroke="rgba(135, 55, 55, 1)" stroke-width="1.5"></path><path d="M1455.93 543.74L1256.74 710.74" stroke="rgba(135, 55, 55, 1)" stroke-width="1.5"></path><path d="M1423.18 663.33L1423.18 663.33" stroke="rgba(135, 55, 55, 1)" stroke-width="1.5"></path><path d="M1423.18 663.33L1408.16 793.12" stroke="rgba(135, 55, 55, 1)" stroke-width="1.5"></path><path d="M1423.18 663.33L1591.26 649.27" stroke="rgba(135, 55, 55, 1)" stroke-width="1.5"></path><path d="M1408.16 793.12L1408.16 793.12" stroke="rgba(135, 55, 55, 1)" stroke-width="1.5"></path><path d="M1565.81 -53.07L1565.81 -53.07" stroke="rgba(135, 55, 55, 1)" stroke-width="1.5"></path><path d="M1565.81 -53.07L1568.37 65.93" stroke="rgba(135, 55, 55, 1)" stroke-width="1.5"></path><path d="M1565.81 -53.07L1454.73 104.16" stroke="rgba(135, 55, 55, 1)" stroke-width="1.5"></path><path d="M1565.81 -53.07L1415.09 189.13" stroke="rgba(135, 55, 55, 1)" stroke-width="1.5"></path><path d="M1565.81 -53.07L1590.68 250.85" stroke="rgba(135, 55, 55, 1)" stroke-width="1.5"></path><path d="M1568.37 65.93L1568.37 65.93" stroke="rgba(135, 55, 55, 1)" stroke-width="1.5"></path><path d="M1590.68 250.85L1590.68 250.85" stroke="rgba(135, 55, 55, 1)" stroke-width="1.5"></path><path d="M1590.68 250.85L1562.58 351.42" stroke="rgba(135, 55, 55, 1)" stroke-width="1.5"></path><path d="M1590.68 250.85L1568.37 65.93" stroke="rgba(135, 55, 55, 1)" stroke-width="1.5"></path><path d="M1590.68 250.85L1454.73 104.16" stroke="rgba(135, 55, 55, 1)" stroke-width="1.5"></path><path d="M1562.58 351.42L1562.58 351.42" stroke="rgba(135, 55, 55, 1)" stroke-width="1.5"></path><path d="M1591.26 649.27L1591.26 649.27" stroke="rgba(135, 55, 55, 1)" stroke-width="1.5"></path><path d="M1592.02 844.93L1592.02 844.93" stroke="rgba(135, 55, 55, 1)" stroke-width="1.5"></path><path d="M1592.02 844.93L1579.88 997.76" stroke="rgba(135, 55, 55, 1)" stroke-width="1.5"></path><path d="M1592.02 844.93L1408.16 793.12" stroke="rgba(135, 55, 55, 1)" stroke-width="1.5"></path><path d="M1592.02 844.93L1591.26 649.27" stroke="rgba(135, 55, 55, 1)" stroke-width="1.5"></path><path d="M1592.02 844.93L1423.18 663.33" stroke="rgba(135, 55, 55, 1)" stroke-width="1.5"></path><path d="M1592.02 844.93L1455.93 543.74" stroke="rgba(135, 55, 55, 1)" stroke-width="1.5"></path><path d="M1592.02 844.93L1261.58 857.34" stroke="rgba(135, 55, 55, 1)" stroke-width="1.5"></path><path d="M1579.88 997.76L1579.88 997.76" stroke="rgba(135, 55, 55, 1)" stroke-width="1.5"></path><path d="M1579.88 997.76L1408.16 793.12" stroke="rgba(135, 55, 55, 1)" stroke-width="1.5"></path><path d="M1579.88 997.76L1267.12 995.64" stroke="rgba(135, 55, 55, 1)" stroke-width="1.5"></path><path d="M1579.88 997.76L1261.58 857.34" stroke="rgba(135, 55, 55, 1)" stroke-width="1.5"></path><path d="M1579.88 997.76L1591.26 649.27" stroke="rgba(135, 55, 55, 1)" stroke-width="1.5"></path><path d="M1579.88 997.76L1423.18 663.33" stroke="rgba(135, 55, 55, 1)" stroke-width="1.5"></path><circle r="5" cx="-38.94" cy="558.16" fill="rgba(135, 55, 55, 1)"></circle><circle r="5" cx="-105.19" cy="662.73" fill="rgba(135, 55, 55, 1)"></circle><circle r="5" cx="-76.48" cy="845.63" fill="rgba(135, 55, 55, 1)"></circle><circle r="5" cx="-75.44" cy="1009.66" fill="rgba(135, 55, 55, 1)"></circle><circle r="5" cx="48.1" cy="491.64" fill="rgba(135, 55, 55, 1)"></circle><circle r="5" cx="62.4" cy="685.08" fill="rgba(135, 55, 55, 1)"></circle><circle r="5" cx="70.17" cy="804.67" fill="rgba(135, 55, 55, 1)"></circle><circle r="5" cx="102.31" cy="994.96" fill="rgba(135, 55, 55, 1)"></circle><circle r="5" cx="193.32" cy="542.18" fill="rgba(135, 55, 55, 1)"></circle><circle r="5" cx="200.56" cy="667.78" fill="rgba(135, 55, 55, 1)"></circle><circle r="5" cx="224.79" cy="799.78" fill="rgba(135, 55, 55, 1)"></circle><circle r="5" cx="356.83" cy="488.04" fill="rgba(135, 55, 55, 1)"></circle><circle r="5" cx="348.14" cy="687.12" fill="rgba(135, 55, 55, 1)"></circle><circle r="5" cx="358.5" cy="839.7" fill="rgba(135, 55, 55, 1)"></circle><circle r="5" cx="411.38" cy="1001.95" fill="rgba(135, 55, 55, 1)"></circle><circle r="5" cx="536.33" cy="509.47" fill="rgba(135, 55, 55, 1)"></circle><circle r="5" cx="560.61" cy="667.35" fill="rgba(135, 55, 55, 1)"></circle><circle r="5" cx="546.75" cy="856.14" fill="rgba(135, 55, 55, 1)"></circle><circle r="5" cx="514.4" cy="950.41" fill="rgba(135, 55, 55, 1)"></circle><circle r="5" cx="640.48" cy="349.68" fill="rgba(135, 55, 55, 1)"></circle><circle r="5" cx="667.86" cy="519.66" fill="rgba(135, 55, 55, 1)"></circle><circle r="5" cx="704.69" cy="648.41" fill="rgba(135, 55, 55, 1)"></circle><circle r="5" cx="663.05" cy="788.32" fill="rgba(135, 55, 55, 1)"></circle><circle r="5" cx="692.56" cy="986.18" fill="rgba(135, 55, 55, 1)"></circle><circle r="5" cx="828.32" cy="258.56" fill="rgba(135, 55, 55, 1)"></circle><circle r="5" cx="835.73" cy="390.65" fill="rgba(135, 55, 55, 1)"></circle><circle r="5" cx="858.02" cy="522.92" fill="rgba(135, 55, 55, 1)"></circle><circle r="5" cx="835.94" cy="651.74" fill="rgba(135, 55, 55, 1)"></circle><circle r="5" cx="789.26" cy="847.03" fill="rgba(135, 55, 55, 1)"></circle><circle r="5" cx="999.61" cy="-57.29" fill="rgba(135, 55, 55, 1)"></circle><circle r="5" cx="977.85" cy="111.14" fill="rgba(135, 55, 55, 1)"></circle><circle r="5" cx="978.38" cy="195.51" fill="rgba(135, 55, 55, 1)"></circle><circle r="5" cx="998.08" cy="378.05" fill="rgba(135, 55, 55, 1)"></circle><circle r="5" cx="969.29" cy="502.74" fill="rgba(135, 55, 55, 1)"></circle><circle r="5" cx="1007.3" cy="681.36" fill="rgba(135, 55, 55, 1)"></circle><circle r="5" cx="1002.26" cy="794.38" fill="rgba(135, 55, 55, 1)"></circle><circle r="5" cx="968.32" cy="972.88" fill="rgba(135, 55, 55, 1)"></circle><circle r="5" cx="1098.36" cy="-43.89" fill="rgba(135, 55, 55, 1)"></circle><circle r="5" cx="1095.25" cy="66.37" fill="rgba(135, 55, 55, 1)"></circle><circle r="5" cx="1159.39" cy="213.23" fill="rgba(135, 55, 55, 1)"></circle><circle r="5" cx="1113.73" cy="390.04" fill="rgba(135, 55, 55, 1)"></circle><circle r="5" cx="1113.19" cy="506.26" fill="rgba(135, 55, 55, 1)"></circle><circle r="5" cx="1121.75" cy="643.04" fill="rgba(135, 55, 55, 1)"></circle><circle r="5" cx="1132.15" cy="951.66" fill="rgba(135, 55, 55, 1)"></circle><circle r="5" cx="1302.37" cy="205.17" fill="rgba(135, 55, 55, 1)"></circle><circle r="5" cx="1238.35" cy="351.02" fill="rgba(135, 55, 55, 1)"></circle><circle r="5" cx="1256.74" cy="710.74" fill="rgba(135, 55, 55, 1)"></circle><circle r="5" cx="1261.58" cy="857.34" fill="rgba(135, 55, 55, 1)"></circle><circle r="5" cx="1267.12" cy="995.64" fill="rgba(135, 55, 55, 1)"></circle><circle r="5" cx="1397.2" cy="-96.5" fill="rgba(135, 55, 55, 1)"></circle><circle r="5" cx="1454.73" cy="104.16" fill="rgba(135, 55, 55, 1)"></circle><circle r="5" cx="1415.09" cy="189.13" fill="rgba(135, 55, 55, 1)"></circle><circle r="5" cx="1408.46" cy="353.74" fill="rgba(135, 55, 55, 1)"></circle><circle r="5" cx="1455.93" cy="543.74" fill="rgba(135, 55, 55, 1)"></circle><circle r="5" cx="1423.18" cy="663.33" fill="rgba(135, 55, 55, 1)"></circle><circle r="5" cx="1408.16" cy="793.12" fill="rgba(135, 55, 55, 1)"></circle><circle r="5" cx="1565.81" cy="-53.07" fill="rgba(135, 55, 55, 1)"></circle><circle r="5" cx="1568.37" cy="65.93" fill="rgba(135, 55, 55, 1)"></circle><circle r="5" cx="1590.68" cy="250.85" fill="rgba(135, 55, 55, 1)"></circle><circle r="5" cx="1562.58" cy="351.42" fill="rgba(135, 55, 55, 1)"></circle><circle r="5" cx="1591.26" cy="649.27" fill="rgba(135, 55, 55, 1)"></circle><circle r="5" cx="1592.02" cy="844.93" fill="rgba(135, 55, 55, 1)"></circle><circle r="5" cx="1579.88" cy="997.76" fill="rgba(135, 55, 55, 1)"></circle><path d="M-39.98 664.37L-39.98 664.37" stroke="hsl(0, 42.1%, 48.4%)" stroke-width="1.5"></path><path d="M-39.98 664.37L105.25 682.98" stroke="hsl(0, 42.1%, 48.4%)" stroke-width="1.5"></path><path d="M-39.98 664.37L-98.61 826.5" stroke="hsl(0, 42.1%, 48.4%)" stroke-width="1.5"></path><path d="M-39.98 664.37L91.54 813.24" stroke="hsl(0, 42.1%, 48.4%)" stroke-width="1.5"></path><path d="M-39.98 664.37L208.02 655.3" stroke="hsl(0, 42.1%, 48.4%)" stroke-width="1.5"></path><path d="M-39.98 664.37L83.7 957.69" stroke="hsl(0, 42.1%, 48.4%)" stroke-width="1.5"></path><path d="M-39.98 664.37L226.22 855.65" stroke="hsl(0, 42.1%, 48.4%)" stroke-width="1.5"></path><path d="M647.92 658.65L647.92 658.65" stroke="hsl(0, 42.1%, 48.4%)" stroke-width="1.5"></path><path d="M647.92 658.65L650.1 550.66" stroke="hsl(0, 42.1%, 48.4%)" stroke-width="1.5"></path><path d="M647.92 658.65L518.61 666.37" stroke="hsl(0, 42.1%, 48.4%)" stroke-width="1.5"></path><path d="M647.92 658.65L822.21 677.66" stroke="hsl(0, 42.1%, 48.4%)" stroke-width="1.5"></path><path d="M647.92 658.65L640.4 853.88" stroke="hsl(0, 42.1%, 48.4%)" stroke-width="1.5"></path><path d="M647.92 658.65L489.43 860.95" stroke="hsl(0, 42.1%, 48.4%)" stroke-width="1.5"></path><path d="M647.92 658.65L855.97 498.83" stroke="hsl(0, 42.1%, 48.4%)" stroke-width="1.5"></path><path d="M858.68 831.72L858.68 831.72" stroke="hsl(0, 42.1%, 48.4%)" stroke-width="1.5"></path><path d="M858.68 831.72L961.64 856.75" stroke="hsl(0, 42.1%, 48.4%)" stroke-width="1.5"></path><path d="M858.68 831.72L846.36 953.7" stroke="hsl(0, 42.1%, 48.4%)" stroke-width="1.5"></path><path d="M858.68 831.72L822.21 677.66" stroke="hsl(0, 42.1%, 48.4%)" stroke-width="1.5"></path><path d="M981.32 677.2L981.32 677.2" stroke="hsl(0, 42.1%, 48.4%)" stroke-width="1.5"></path><path d="M981.32 677.2L1096.82 659.9" stroke="hsl(0, 42.1%, 48.4%)" stroke-width="1.5"></path><path d="M981.32 677.2L940.32 532.4" stroke="hsl(0, 42.1%, 48.4%)" stroke-width="1.5"></path><path d="M981.32 677.2L822.21 677.66" stroke="hsl(0, 42.1%, 48.4%)" stroke-width="1.5"></path><path d="M981.32 677.2L961.64 856.75" stroke="hsl(0, 42.1%, 48.4%)" stroke-width="1.5"></path><path d="M981.32 677.2L858.68 831.72" stroke="hsl(0, 42.1%, 48.4%)" stroke-width="1.5"></path><path d="M1283.55 851.59L1283.55 851.59" stroke="hsl(0, 42.1%, 48.4%)" stroke-width="1.5"></path><path d="M1283.55 851.59L1303.21 990.03" stroke="hsl(0, 42.1%, 48.4%)" stroke-width="1.5"></path><path d="M1283.55 851.59L1143.71 854.68" stroke="hsl(0, 42.1%, 48.4%)" stroke-width="1.5"></path><path d="M1283.55 851.59L1269.5 711.06" stroke="hsl(0, 42.1%, 48.4%)" stroke-width="1.5"></path><path d="M1283.55 851.59L1423.13 948.73" stroke="hsl(0, 42.1%, 48.4%)" stroke-width="1.5"></path><path d="M1541.07 -110.42L1541.07 -110.42" stroke="hsl(0, 42.1%, 48.4%)" stroke-width="1.5"></path><path d="M1541.07 -110.42L1414.99 -38.07" stroke="hsl(0, 42.1%, 48.4%)" stroke-width="1.5"></path><path d="M1541.07 -110.42L1537.62 60.45" stroke="hsl(0, 42.1%, 48.4%)" stroke-width="1.5"></path><path d="M1541.07 -110.42L1400.19 72.24" stroke="hsl(0, 42.1%, 48.4%)" stroke-width="1.5"></path><path d="M1541.07 -110.42L1291.04 -44.24" stroke="hsl(0, 42.1%, 48.4%)" stroke-width="1.5"></path><path d="M1541.07 -110.42L1288.53 41.91" stroke="hsl(0, 42.1%, 48.4%)" stroke-width="1.5"></path><path d="M1541.07 -110.42L1421.72 261.11" stroke="hsl(0, 42.1%, 48.4%)" stroke-width="1.5"></path><path d="M1555.93 368.82L1555.93 368.82" stroke="hsl(0, 42.1%, 48.4%)" stroke-width="1.5"></path><path d="M1555.93 368.82L1406.55 340.33" stroke="hsl(0, 42.1%, 48.4%)" stroke-width="1.5"></path><path d="M1555.93 368.82L1421.72 261.11" stroke="hsl(0, 42.1%, 48.4%)" stroke-width="1.5"></path><path d="M1555.93 368.82L1551.35 549.23" stroke="hsl(0, 42.1%, 48.4%)" stroke-width="1.5"></path><path d="M1555.93 368.82L1273.21 389.14" stroke="hsl(0, 42.1%, 48.4%)" stroke-width="1.5"></path><path d="M1590.14 1007.2L1590.14 1007.2" stroke="hsl(0, 42.1%, 48.4%)" stroke-width="1.5"></path><path d="M1590.14 1007.2L1423.13 948.73" stroke="hsl(0, 42.1%, 48.4%)" stroke-width="1.5"></path><path d="M1590.14 1007.2L1572.1 807.15" stroke="hsl(0, 42.1%, 48.4%)" stroke-width="1.5"></path><path d="M-98.61 826.5L-98.61 826.5" stroke="hsl(0, 42.1%, 48.4%)" stroke-width="1.5"></path><path d="M-98.61 826.5L-74.96 996.28" stroke="hsl(0, 42.1%, 48.4%)" stroke-width="1.5"></path><path d="M-98.61 826.5L91.54 813.24" stroke="hsl(0, 42.1%, 48.4%)" stroke-width="1.5"></path><path d="M-98.61 826.5L83.7 957.69" stroke="hsl(0, 42.1%, 48.4%)" stroke-width="1.5"></path><path d="M-74.96 996.28L-74.96 996.28" stroke="hsl(0, 42.1%, 48.4%)" stroke-width="1.5"></path><path d="M-74.96 996.28L83.7 957.69" stroke="hsl(0, 42.1%, 48.4%)" stroke-width="1.5"></path><path d="M-74.96 996.28L91.54 813.24" stroke="hsl(0, 42.1%, 48.4%)" stroke-width="1.5"></path><path d="M-74.96 996.28L226.96 977.88" stroke="hsl(0, 42.1%, 48.4%)" stroke-width="1.5"></path><path d="M105.25 682.98L105.25 682.98" stroke="hsl(0, 42.1%, 48.4%)" stroke-width="1.5"></path><path d="M105.25 682.98L208.02 655.3" stroke="hsl(0, 42.1%, 48.4%)" stroke-width="1.5"></path><path d="M105.25 682.98L91.54 813.24" stroke="hsl(0, 42.1%, 48.4%)" stroke-width="1.5"></path><path d="M105.25 682.98L226.22 855.65" stroke="hsl(0, 42.1%, 48.4%)" stroke-width="1.5"></path><path d="M91.54 813.24L91.54 813.24" stroke="hsl(0, 42.1%, 48.4%)" stroke-width="1.5"></path><path d="M91.54 813.24L226.22 855.65" stroke="hsl(0, 42.1%, 48.4%)" stroke-width="1.5"></path><path d="M91.54 813.24L83.7 957.69" stroke="hsl(0, 42.1%, 48.4%)" stroke-width="1.5"></path><path d="M91.54 813.24L208.02 655.3" stroke="hsl(0, 42.1%, 48.4%)" stroke-width="1.5"></path><path d="M83.7 957.69L83.7 957.69" stroke="hsl(0, 42.1%, 48.4%)" stroke-width="1.5"></path><path d="M208.02 655.3L208.02 655.3" stroke="hsl(0, 42.1%, 48.4%)" stroke-width="1.5"></path><path d="M208.02 655.3L370.2 693.92" stroke="hsl(0, 42.1%, 48.4%)" stroke-width="1.5"></path><path d="M226.22 855.65L226.22 855.65" stroke="hsl(0, 42.1%, 48.4%)" stroke-width="1.5"></path><path d="M226.22 855.65L226.96 977.88" stroke="hsl(0, 42.1%, 48.4%)" stroke-width="1.5"></path><path d="M226.96 977.88L226.96 977.88" stroke="hsl(0, 42.1%, 48.4%)" stroke-width="1.5"></path><path d="M226.96 977.88L344.25 937.74" stroke="hsl(0, 42.1%, 48.4%)" stroke-width="1.5"></path><path d="M226.96 977.88L83.7 957.69" stroke="hsl(0, 42.1%, 48.4%)" stroke-width="1.5"></path><path d="M226.96 977.88L91.54 813.24" stroke="hsl(0, 42.1%, 48.4%)" stroke-width="1.5"></path><path d="M226.96 977.88L489.43 860.95" stroke="hsl(0, 42.1%, 48.4%)" stroke-width="1.5"></path><path d="M370.2 693.92L370.2 693.92" stroke="hsl(0, 42.1%, 48.4%)" stroke-width="1.5"></path><path d="M370.2 693.92L518.61 666.37" stroke="hsl(0, 42.1%, 48.4%)" stroke-width="1.5"></path><path d="M370.2 693.92L489.43 860.95" stroke="hsl(0, 42.1%, 48.4%)" stroke-width="1.5"></path><path d="M344.25 937.74L344.25 937.74" stroke="hsl(0, 42.1%, 48.4%)" stroke-width="1.5"></path><path d="M344.25 937.74L226.22 855.65" stroke="hsl(0, 42.1%, 48.4%)" stroke-width="1.5"></path><path d="M518.61 666.37L518.61 666.37" stroke="hsl(0, 42.1%, 48.4%)" stroke-width="1.5"></path><path d="M518.61 666.37L650.1 550.66" stroke="hsl(0, 42.1%, 48.4%)" stroke-width="1.5"></path><path d="M518.61 666.37L489.43 860.95" stroke="hsl(0, 42.1%, 48.4%)" stroke-width="1.5"></path><path d="M518.61 666.37L640.4 853.88" stroke="hsl(0, 42.1%, 48.4%)" stroke-width="1.5"></path><path d="M518.61 666.37L536.95 942.98" stroke="hsl(0, 42.1%, 48.4%)" stroke-width="1.5"></path><path d="M489.43 860.95L489.43 860.95" stroke="hsl(0, 42.1%, 48.4%)" stroke-width="1.5"></path><path d="M489.43 860.95L536.95 942.98" stroke="hsl(0, 42.1%, 48.4%)" stroke-width="1.5"></path><path d="M536.95 942.98L536.95 942.98" stroke="hsl(0, 42.1%, 48.4%)" stroke-width="1.5"></path><path d="M536.95 942.98L644.18 946.91" stroke="hsl(0, 42.1%, 48.4%)" stroke-width="1.5"></path><path d="M536.95 942.98L640.4 853.88" stroke="hsl(0, 42.1%, 48.4%)" stroke-width="1.5"></path><path d="M536.95 942.98L344.25 937.74" stroke="hsl(0, 42.1%, 48.4%)" stroke-width="1.5"></path><path d="M650.1 550.66L650.1 550.66" stroke="hsl(0, 42.1%, 48.4%)" stroke-width="1.5"></path><path d="M650.1 550.66L855.97 498.83" stroke="hsl(0, 42.1%, 48.4%)" stroke-width="1.5"></path><path d="M650.1 550.66L822.21 677.66" stroke="hsl(0, 42.1%, 48.4%)" stroke-width="1.5"></path><path d="M650.1 550.66L940.32 532.4" stroke="hsl(0, 42.1%, 48.4%)" stroke-width="1.5"></path><path d="M650.1 550.66L640.4 853.88" stroke="hsl(0, 42.1%, 48.4%)" stroke-width="1.5"></path><path d="M640.4 853.88L640.4 853.88" stroke="hsl(0, 42.1%, 48.4%)" stroke-width="1.5"></path><path d="M640.4 853.88L644.18 946.91" stroke="hsl(0, 42.1%, 48.4%)" stroke-width="1.5"></path><path d="M640.4 853.88L489.43 860.95" stroke="hsl(0, 42.1%, 48.4%)" stroke-width="1.5"></path><path d="M644.18 946.91L644.18 946.91" stroke="hsl(0, 42.1%, 48.4%)" stroke-width="1.5"></path><path d="M644.18 946.91L489.43 860.95" stroke="hsl(0, 42.1%, 48.4%)" stroke-width="1.5"></path><path d="M644.18 946.91L846.36 953.7" stroke="hsl(0, 42.1%, 48.4%)" stroke-width="1.5"></path><path d="M644.18 946.91L858.68 831.72" stroke="hsl(0, 42.1%, 48.4%)" stroke-width="1.5"></path><path d="M644.18 946.91L647.92 658.65" stroke="hsl(0, 42.1%, 48.4%)" stroke-width="1.5"></path><path d="M855.97 498.83L855.97 498.83" stroke="hsl(0, 42.1%, 48.4%)" stroke-width="1.5"></path><path d="M855.97 498.83L940.32 532.4" stroke="hsl(0, 42.1%, 48.4%)" stroke-width="1.5"></path><path d="M855.97 498.83L947.32 393.29" stroke="hsl(0, 42.1%, 48.4%)" stroke-width="1.5"></path><path d="M822.21 677.66L822.21 677.66" stroke="hsl(0, 42.1%, 48.4%)" stroke-width="1.5"></path><path d="M846.36 953.7L846.36 953.7" stroke="hsl(0, 42.1%, 48.4%)" stroke-width="1.5"></path><path d="M846.36 953.7L961.64 856.75" stroke="hsl(0, 42.1%, 48.4%)" stroke-width="1.5"></path><path d="M846.36 953.7L991.32 998.46" stroke="hsl(0, 42.1%, 48.4%)" stroke-width="1.5"></path><path d="M846.36 953.7L640.4 853.88" stroke="hsl(0, 42.1%, 48.4%)" stroke-width="1.5"></path><path d="M947.32 393.29L947.32 393.29" stroke="hsl(0, 42.1%, 48.4%)" stroke-width="1.5"></path><path d="M947.32 393.29L940.32 532.4" stroke="hsl(0, 42.1%, 48.4%)" stroke-width="1.5"></path><path d="M947.32 393.29L1100.4 364.98" stroke="hsl(0, 42.1%, 48.4%)" stroke-width="1.5"></path><path d="M940.32 532.4L940.32 532.4" stroke="hsl(0, 42.1%, 48.4%)" stroke-width="1.5"></path><path d="M961.64 856.75L961.64 856.75" stroke="hsl(0, 42.1%, 48.4%)" stroke-width="1.5"></path><path d="M961.64 856.75L991.32 998.46" stroke="hsl(0, 42.1%, 48.4%)" stroke-width="1.5"></path><path d="M961.64 856.75L1143.71 854.68" stroke="hsl(0, 42.1%, 48.4%)" stroke-width="1.5"></path><path d="M991.32 998.46L991.32 998.46" stroke="hsl(0, 42.1%, 48.4%)" stroke-width="1.5"></path><path d="M991.32 998.46L1115.57 1000.47" stroke="hsl(0, 42.1%, 48.4%)" stroke-width="1.5"></path><path d="M991.32 998.46L1143.71 854.68" stroke="hsl(0, 42.1%, 48.4%)" stroke-width="1.5"></path><path d="M991.32 998.46L858.68 831.72" stroke="hsl(0, 42.1%, 48.4%)" stroke-width="1.5"></path><path d="M991.32 998.46L1303.21 990.03" stroke="hsl(0, 42.1%, 48.4%)" stroke-width="1.5"></path><path d="M1162.19 65.67L1162.19 65.67" stroke="hsl(0, 42.1%, 48.4%)" stroke-width="1.5"></path><path d="M1162.19 65.67L1288.53 41.91" stroke="hsl(0, 42.1%, 48.4%)" stroke-width="1.5"></path><path d="M1162.19 65.67L1291.04 -44.24" stroke="hsl(0, 42.1%, 48.4%)" stroke-width="1.5"></path><path d="M1096.67 229.4L1096.67 229.4" stroke="hsl(0, 42.1%, 48.4%)" stroke-width="1.5"></path><path d="M1096.67 229.4L1100.4 364.98" stroke="hsl(0, 42.1%, 48.4%)" stroke-width="1.5"></path><path d="M1096.67 229.4L1162.19 65.67" stroke="hsl(0, 42.1%, 48.4%)" stroke-width="1.5"></path><path d="M1096.67 229.4L1285.8 249.91" stroke="hsl(0, 42.1%, 48.4%)" stroke-width="1.5"></path><path d="M1100.4 364.98L1100.4 364.98" stroke="hsl(0, 42.1%, 48.4%)" stroke-width="1.5"></path><path d="M1100.4 364.98L1273.21 389.14" stroke="hsl(0, 42.1%, 48.4%)" stroke-width="1.5"></path><path d="M1100.4 364.98L1154.72 540.24" stroke="hsl(0, 42.1%, 48.4%)" stroke-width="1.5"></path><path d="M1154.72 540.24L1154.72 540.24" stroke="hsl(0, 42.1%, 48.4%)" stroke-width="1.5"></path><path d="M1154.72 540.24L1096.82 659.9" stroke="hsl(0, 42.1%, 48.4%)" stroke-width="1.5"></path><path d="M1154.72 540.24L1290.92 553.95" stroke="hsl(0, 42.1%, 48.4%)" stroke-width="1.5"></path><path d="M1096.82 659.9L1096.82 659.9" stroke="hsl(0, 42.1%, 48.4%)" stroke-width="1.5"></path><path d="M1143.71 854.68L1143.71 854.68" stroke="hsl(0, 42.1%, 48.4%)" stroke-width="1.5"></path><path d="M1143.71 854.68L1115.57 1000.47" stroke="hsl(0, 42.1%, 48.4%)" stroke-width="1.5"></path><path d="M1115.57 1000.47L1115.57 1000.47" stroke="hsl(0, 42.1%, 48.4%)" stroke-width="1.5"></path><path d="M1115.57 1000.47L1303.21 990.03" stroke="hsl(0, 42.1%, 48.4%)" stroke-width="1.5"></path><path d="M1115.57 1000.47L961.64 856.75" stroke="hsl(0, 42.1%, 48.4%)" stroke-width="1.5"></path><path d="M1115.57 1000.47L1283.55 851.59" stroke="hsl(0, 42.1%, 48.4%)" stroke-width="1.5"></path><path d="M1291.04 -44.24L1291.04 -44.24" stroke="hsl(0, 42.1%, 48.4%)" stroke-width="1.5"></path><path d="M1291.04 -44.24L1288.53 41.91" stroke="hsl(0, 42.1%, 48.4%)" stroke-width="1.5"></path><path d="M1291.04 -44.24L1414.99 -38.07" stroke="hsl(0, 42.1%, 48.4%)" stroke-width="1.5"></path><path d="M1288.53 41.91L1288.53 41.91" stroke="hsl(0, 42.1%, 48.4%)" stroke-width="1.5"></path><path d="M1288.53 41.91L1400.19 72.24" stroke="hsl(0, 42.1%, 48.4%)" stroke-width="1.5"></path><path d="M1285.8 249.91L1285.8 249.91" stroke="hsl(0, 42.1%, 48.4%)" stroke-width="1.5"></path><path d="M1285.8 249.91L1421.72 261.11" stroke="hsl(0, 42.1%, 48.4%)" stroke-width="1.5"></path><path d="M1285.8 249.91L1273.21 389.14" stroke="hsl(0, 42.1%, 48.4%)" stroke-width="1.5"></path><path d="M1285.8 249.91L1406.55 340.33" stroke="hsl(0, 42.1%, 48.4%)" stroke-width="1.5"></path><path d="M1273.21 389.14L1273.21 389.14" stroke="hsl(0, 42.1%, 48.4%)" stroke-width="1.5"></path><path d="M1273.21 389.14L1406.55 340.33" stroke="hsl(0, 42.1%, 48.4%)" stroke-width="1.5"></path><path d="M1273.21 389.14L1290.92 553.95" stroke="hsl(0, 42.1%, 48.4%)" stroke-width="1.5"></path><path d="M1273.21 389.14L1154.72 540.24" stroke="hsl(0, 42.1%, 48.4%)" stroke-width="1.5"></path><path d="M1273.21 389.14L1421.72 261.11" stroke="hsl(0, 42.1%, 48.4%)" stroke-width="1.5"></path><path d="M1290.92 553.95L1290.92 553.95" stroke="hsl(0, 42.1%, 48.4%)" stroke-width="1.5"></path><path d="M1290.92 553.95L1269.5 711.06" stroke="hsl(0, 42.1%, 48.4%)" stroke-width="1.5"></path><path d="M1290.92 553.95L1407.4 702.3" stroke="hsl(0, 42.1%, 48.4%)" stroke-width="1.5"></path><path d="M1290.92 553.95L1096.82 659.9" stroke="hsl(0, 42.1%, 48.4%)" stroke-width="1.5"></path><path d="M1290.92 553.95L1406.55 340.33" stroke="hsl(0, 42.1%, 48.4%)" stroke-width="1.5"></path><path d="M1269.5 711.06L1269.5 711.06" stroke="hsl(0, 42.1%, 48.4%)" stroke-width="1.5"></path><path d="M1269.5 711.06L1407.4 702.3" stroke="hsl(0, 42.1%, 48.4%)" stroke-width="1.5"></path><path d="M1269.5 711.06L1096.82 659.9" stroke="hsl(0, 42.1%, 48.4%)" stroke-width="1.5"></path><path d="M1269.5 711.06L1143.71 854.68" stroke="hsl(0, 42.1%, 48.4%)" stroke-width="1.5"></path><path d="M1269.5 711.06L1154.72 540.24" stroke="hsl(0, 42.1%, 48.4%)" stroke-width="1.5"></path><path d="M1303.21 990.03L1303.21 990.03" stroke="hsl(0, 42.1%, 48.4%)" stroke-width="1.5"></path><path d="M1303.21 990.03L1423.13 948.73" stroke="hsl(0, 42.1%, 48.4%)" stroke-width="1.5"></path><path d="M1303.21 990.03L1143.71 854.68" stroke="hsl(0, 42.1%, 48.4%)" stroke-width="1.5"></path><path d="M1303.21 990.03L1455.99 820.06" stroke="hsl(0, 42.1%, 48.4%)" stroke-width="1.5"></path><path d="M1414.99 -38.07L1414.99 -38.07" stroke="hsl(0, 42.1%, 48.4%)" stroke-width="1.5"></path><path d="M1414.99 -38.07L1400.19 72.24" stroke="hsl(0, 42.1%, 48.4%)" stroke-width="1.5"></path><path d="M1414.99 -38.07L1288.53 41.91" stroke="hsl(0, 42.1%, 48.4%)" stroke-width="1.5"></path><path d="M1400.19 72.24L1400.19 72.24" stroke="hsl(0, 42.1%, 48.4%)" stroke-width="1.5"></path><path d="M1421.72 261.11L1421.72 261.11" stroke="hsl(0, 42.1%, 48.4%)" stroke-width="1.5"></path><path d="M1421.72 261.11L1406.55 340.33" stroke="hsl(0, 42.1%, 48.4%)" stroke-width="1.5"></path><path d="M1421.72 261.11L1400.19 72.24" stroke="hsl(0, 42.1%, 48.4%)" stroke-width="1.5"></path><path d="M1406.55 340.33L1406.55 340.33" stroke="hsl(0, 42.1%, 48.4%)" stroke-width="1.5"></path><path d="M1407.4 702.3L1407.4 702.3" stroke="hsl(0, 42.1%, 48.4%)" stroke-width="1.5"></path><path d="M1407.4 702.3L1455.99 820.06" stroke="hsl(0, 42.1%, 48.4%)" stroke-width="1.5"></path><path d="M1407.4 702.3L1587.62 669.52" stroke="hsl(0, 42.1%, 48.4%)" stroke-width="1.5"></path><path d="M1455.99 820.06L1455.99 820.06" stroke="hsl(0, 42.1%, 48.4%)" stroke-width="1.5"></path><path d="M1455.99 820.06L1572.1 807.15" stroke="hsl(0, 42.1%, 48.4%)" stroke-width="1.5"></path><path d="M1455.99 820.06L1423.13 948.73" stroke="hsl(0, 42.1%, 48.4%)" stroke-width="1.5"></path><path d="M1423.13 948.73L1423.13 948.73" stroke="hsl(0, 42.1%, 48.4%)" stroke-width="1.5"></path><path d="M1537.62 60.45L1537.62 60.45" stroke="hsl(0, 42.1%, 48.4%)" stroke-width="1.5"></path><path d="M1537.62 60.45L1400.19 72.24" stroke="hsl(0, 42.1%, 48.4%)" stroke-width="1.5"></path><path d="M1537.62 60.45L1414.99 -38.07" stroke="hsl(0, 42.1%, 48.4%)" stroke-width="1.5"></path><path d="M1537.62 60.45L1421.72 261.11" stroke="hsl(0, 42.1%, 48.4%)" stroke-width="1.5"></path><path d="M1537.62 60.45L1288.53 41.91" stroke="hsl(0, 42.1%, 48.4%)" stroke-width="1.5"></path><path d="M1537.62 60.45L1291.04 -44.24" stroke="hsl(0, 42.1%, 48.4%)" stroke-width="1.5"></path><path d="M1551.35 549.23L1551.35 549.23" stroke="hsl(0, 42.1%, 48.4%)" stroke-width="1.5"></path><path d="M1551.35 549.23L1587.62 669.52" stroke="hsl(0, 42.1%, 48.4%)" stroke-width="1.5"></path><path d="M1551.35 549.23L1407.4 702.3" stroke="hsl(0, 42.1%, 48.4%)" stroke-width="1.5"></path><path d="M1551.35 549.23L1406.55 340.33" stroke="hsl(0, 42.1%, 48.4%)" stroke-width="1.5"></path><path d="M1587.62 669.52L1587.62 669.52" stroke="hsl(0, 42.1%, 48.4%)" stroke-width="1.5"></path><path d="M1587.62 669.52L1572.1 807.15" stroke="hsl(0, 42.1%, 48.4%)" stroke-width="1.5"></path><path d="M1572.1 807.15L1572.1 807.15" stroke="hsl(0, 42.1%, 48.4%)" stroke-width="1.5"></path><path d="M1572.1 807.15L1407.4 702.3" stroke="hsl(0, 42.1%, 48.4%)" stroke-width="1.5"></path><path d="M1572.1 807.15L1423.13 948.73" stroke="hsl(0, 42.1%, 48.4%)" stroke-width="1.5"></path><path d="M1572.1 807.15L1551.35 549.23" stroke="hsl(0, 42.1%, 48.4%)" stroke-width="1.5"></path><circle r="25" cx="-39.98" cy="664.37" fill="url(#SvgjsRadialGradient1019)"></circle><circle r="25" cx="647.92" cy="658.65" fill="url(#SvgjsRadialGradient1019)"></circle><circle r="25" cx="858.68" cy="831.72" fill="url(#SvgjsRadialGradient1019)"></circle><circle r="25" cx="981.32" cy="677.2" fill="url(#SvgjsRadialGradient1019)"></circle><circle r="25" cx="1283.55" cy="851.59" fill="url(#SvgjsRadialGradient1019)"></circle><circle r="25" cx="1541.07" cy="-110.42" fill="url(#SvgjsRadialGradient1019)"></circle><circle r="25" cx="1555.93" cy="368.82" fill="url(#SvgjsRadialGradient1019)"></circle><circle r="25" cx="1590.14" cy="1007.2" fill="url(#SvgjsRadialGradient1019)"></circle><circle r="5" cx="-98.61" cy="826.5" fill="#c39b9b"></circle><circle r="5" cx="-74.96" cy="996.28" fill="#c39b9b"></circle><circle r="5" cx="105.25" cy="682.98" fill="#c39b9b"></circle><circle r="5" cx="91.54" cy="813.24" fill="#c39b9b"></circle><circle r="5" cx="83.7" cy="957.69" fill="#c39b9b"></circle><circle r="5" cx="208.02" cy="655.3" fill="#c39b9b"></circle><circle r="5" cx="226.22" cy="855.65" fill="#c39b9b"></circle><circle r="5" cx="226.96" cy="977.88" fill="#c39b9b"></circle><circle r="5" cx="370.2" cy="693.92" fill="#c39b9b"></circle><circle r="5" cx="344.25" cy="937.74" fill="#c39b9b"></circle><circle r="5" cx="518.61" cy="666.37" fill="#c39b9b"></circle><circle r="5" cx="489.43" cy="860.95" fill="#c39b9b"></circle><circle r="5" cx="536.95" cy="942.98" fill="#c39b9b"></circle><circle r="5" cx="650.1" cy="550.66" fill="#c39b9b"></circle><circle r="5" cx="640.4" cy="853.88" fill="#c39b9b"></circle><circle r="5" cx="644.18" cy="946.91" fill="#c39b9b"></circle><circle r="5" cx="855.97" cy="498.83" fill="#c39b9b"></circle><circle r="5" cx="822.21" cy="677.66" fill="#c39b9b"></circle><circle r="5" cx="846.36" cy="953.7" fill="#c39b9b"></circle><circle r="5" cx="947.32" cy="393.29" fill="#c39b9b"></circle><circle r="5" cx="940.32" cy="532.4" fill="#c39b9b"></circle><circle r="5" cx="961.64" cy="856.75" fill="#c39b9b"></circle><circle r="5" cx="991.32" cy="998.46" fill="#c39b9b"></circle><circle r="5" cx="1162.19" cy="65.67" fill="#c39b9b"></circle><circle r="5" cx="1096.67" cy="229.4" fill="#c39b9b"></circle><circle r="5" cx="1100.4" cy="364.98" fill="#c39b9b"></circle><circle r="5" cx="1154.72" cy="540.24" fill="#c39b9b"></circle><circle r="5" cx="1096.82" cy="659.9" fill="#c39b9b"></circle><circle r="5" cx="1143.71" cy="854.68" fill="#c39b9b"></circle><circle r="5" cx="1115.57" cy="1000.47" fill="#c39b9b"></circle><circle r="5" cx="1291.04" cy="-44.24" fill="#c39b9b"></circle><circle r="5" cx="1288.53" cy="41.91" fill="#c39b9b"></circle><circle r="5" cx="1285.8" cy="249.91" fill="#c39b9b"></circle><circle r="5" cx="1273.21" cy="389.14" fill="#c39b9b"></circle><circle r="5" cx="1290.92" cy="553.95" fill="#c39b9b"></circle><circle r="5" cx="1269.5" cy="711.06" fill="#c39b9b"></circle><circle r="5" cx="1303.21" cy="990.03" fill="#c39b9b"></circle><circle r="5" cx="1414.99" cy="-38.07" fill="#c39b9b"></circle><circle r="5" cx="1400.19" cy="72.24" fill="#c39b9b"></circle><circle r="5" cx="1421.72" cy="261.11" fill="#c39b9b"></circle><circle r="5" cx="1406.55" cy="340.33" fill="#c39b9b"></circle><circle r="5" cx="1407.4" cy="702.3" fill="#c39b9b"></circle><circle r="5" cx="1455.99" cy="820.06" fill="#c39b9b"></circle><circle r="5" cx="1423.13" cy="948.73" fill="#c39b9b"></circle><circle r="5" cx="1537.62" cy="60.45" fill="#c39b9b"></circle><circle r="5" cx="1551.35" cy="549.23" fill="#c39b9b"></circle><circle r="5" cx="1587.62" cy="669.52" fill="#c39b9b"></circle><circle r="5" cx="1572.1" cy="807.15" fill="#c39b9b"></circle></g><defs><mask id="SvgjsMask1018"><rect width="1440" height="800" fill="#ffffff"></rect></mask><radialGradient id="SvgjsRadialGradient1019"><stop stop-color="#ffffff" offset="0.1"></stop><stop stop-color="rgba(135, 55, 55, 1)" offset="0.2"></stop><stop stop-color="rgba(135, 55, 55, 0)" offset="1"></stop></radialGradient></defs></svg>