<svg id="visual" viewBox="0 0 960 540" width="960" height="540" xmlns="http://www.w3.org/2000/svg" xmlns:xlink="http://www.w3.org/1999/xlink" version="1.1"><rect x="0" y="0" width="960" height="540" fill="#DF4848"></rect><defs><linearGradient id="grad1_0" x1="43.8%" y1="100%" x2="100%" y2="0%"><stop offset="14.444444444444446%" stop-color="#001220" stop-opacity="1"></stop><stop offset="85.55555555555554%" stop-color="#001220" stop-opacity="1"></stop></linearGradient></defs><defs><linearGradient id="grad1_1" x1="43.8%" y1="100%" x2="100%" y2="0%"><stop offset="14.444444444444446%" stop-color="#001220" stop-opacity="1"></stop><stop offset="85.55555555555554%" stop-color="#382a56" stop-opacity="1"></stop></linearGradient></defs><defs><linearGradient id="grad1_2" x1="43.8%" y1="100%" x2="100%" y2="0%"><stop offset="14.444444444444446%" stop-color="#943068" stop-opacity="1"></stop><stop offset="85.55555555555554%" stop-color="#382a56" stop-opacity="1"></stop></linearGradient></defs><defs><linearGradient id="grad1_3" x1="43.8%" y1="100%" x2="100%" y2="0%"><stop offset="14.444444444444446%" stop-color="#943068" stop-opacity="1"></stop><stop offset="85.55555555555554%" stop-color="#df4848" stop-opacity="1"></stop></linearGradient></defs><defs><linearGradient id="grad2_0" x1="0%" y1="100%" x2="56.3%" y2="0%"><stop offset="14.444444444444446%" stop-color="#001220" stop-opacity="1"></stop><stop offset="85.55555555555554%" stop-color="#001220" stop-opacity="1"></stop></linearGradient></defs><defs><linearGradient id="grad2_1" x1="0%" y1="100%" x2="56.3%" y2="0%"><stop offset="14.444444444444446%" stop-color="#382a56" stop-opacity="1"></stop><stop offset="85.55555555555554%" stop-color="#001220" stop-opacity="1"></stop></linearGradient></defs><defs><linearGradient id="grad2_2" x1="0%" y1="100%" x2="56.3%" y2="0%"><stop offset="14.444444444444446%" stop-color="#382a56" stop-opacity="1"></stop><stop offset="85.55555555555554%" stop-color="#943068" stop-opacity="1"></stop></linearGradient></defs><defs><linearGradient id="grad2_3" x1="0%" y1="100%" x2="56.3%" y2="0%"><stop offset="14.444444444444446%" stop-color="#df4848" stop-opacity="1"></stop><stop offset="85.55555555555554%" stop-color="#943068" stop-opacity="1"></stop></linearGradient></defs><g transform="translate(960, 540)"><path d="M-351 0C-332.3 -55.5 -313.6 -111.1 -286.7 -165.5C-259.7 -219.9 -224.6 -273.2 -175.5 -304C-126.4 -334.7 -63.2 -342.9 0 -351L0 0Z" fill="#bf345e"></path><path d="M-263.2 0C-249.2 -41.7 -235.2 -83.3 -215 -124.1C-194.8 -164.9 -168.5 -204.9 -131.6 -228C-94.8 -251 -47.4 -257.1 0 -263.2L0 0Z" fill="#652f66"></path><path d="M-175.5 0C-166.1 -27.8 -156.8 -55.5 -143.3 -82.8C-129.9 -110 -112.3 -136.6 -87.8 -152C-63.2 -167.4 -31.6 -171.4 0 -175.5L0 0Z" fill="#13203d"></path><path d="M-87.7 0C-83.1 -13.9 -78.4 -27.8 -71.7 -41.4C-64.9 -55 -56.2 -68.3 -43.9 -76C-31.6 -83.7 -15.8 -85.7 0 -87.7L0 0Z" fill="#001220"></path></g><g transform="translate(0, 0)"><path d="M351 0C338.7 59.3 326.5 118.5 298.8 172.5C271.1 226.5 227.9 275.1 175.5 304C123.1 332.8 61.6 341.9 0 351L0 0Z" fill="#bf345e"></path><path d="M263.3 0C254.1 44.5 244.9 88.9 224.1 129.4C203.3 169.8 170.9 206.3 131.6 228C92.3 249.6 46.2 256.4 0 263.3L0 0Z" fill="#652f66"></path><path d="M175.5 0C169.4 29.6 163.2 59.3 149.4 86.2C135.5 113.2 113.9 137.6 87.8 152C61.6 166.4 30.8 171 0 175.5L0 0Z" fill="#13203d"></path><path d="M87.8 0C84.7 14.8 81.6 29.6 74.7 43.1C67.8 56.6 57 68.8 43.9 76C30.8 83.2 15.4 85.5 0 87.8L0 0Z" fill="#001220"></path></g></svg>